<?xml version="1.0" encoding="utf-8"?>
<!-- Generator: Adobe Illustrator 15.1.0, SVG Export Plug-In . SVG Version: 6.00 Build 0)  -->
<!DOCTYPE svg PUBLIC "-//W3C//DTD SVG 1.1//EN" "http://www.w3.org/Graphics/SVG/1.1/DTD/svg11.dtd">
<svg version="1.1" id="Layer_1" xmlns="http://www.w3.org/2000/svg" xmlns:xlink="http://www.w3.org/1999/xlink" x="0px" y="0px"
	 width="72px" height="72px" viewBox="0 0 72 72" enable-background="new 0 0 72 72" xml:space="preserve">
<g>
	<path fill="#999999" d="M30.046,43.232c-2.616,0-5.744-2.089-8.18-5.459c-4.428,1.513-8.832,2.379-12.096,2.379
		c-1.709,0-3.053-0.237-3.99-0.706c-1.049-0.522-1.58-1.324-1.58-2.381c0-2.036,1.847-3.817,5.344-5.157
		c-0.055-0.063-0.104-0.126-0.148-0.191c-0.555-0.82-0.669-1.617-0.34-2.37c0.752-1.721,3.809-3.113,8.393-3.826
		c-0.123-1.162-0.187-2.365-0.187-3.579c0-3.61,2.096-5.227,4.173-5.227c1.295,0,2.641,0.592,3.786,1.668
		c2.175,2.043,3.644,4.705,4.038,7.317c1.939,0.454,3.32,1.124,4.107,1.993c0.49,0.542,0.718,1.14,0.676,1.777
		c-0.064,0.969-0.744,2.017-2.021,3.115c0.646,1.361,1.137,2.924,1.422,4.525c0.391,2.197,0.127,3.922-0.765,4.986
		c-0.622,0.742-1.532,1.135-2.63,1.135C30.047,43.232,30.046,43.232,30.046,43.232z M22.087,37.697
		c2.355,3.231,5.467,5.313,7.959,5.313c0,0,0.001,0,0.002,0c1.029,0,1.881-0.366,2.459-1.057c0.847-1.012,1.094-2.672,0.715-4.803
		c-0.277-1.562-0.754-3.084-1.378-4.415C29.751,34.469,26.213,36.268,22.087,37.697z M9.714,32.082
		c-2.43,0.919-5.289,2.523-5.289,4.983c0,0.966,0.489,1.699,1.455,2.181c0.907,0.453,2.217,0.684,3.891,0.684
		c3.225,0,7.576-0.854,11.961-2.346c-0.859-1.219-1.611-2.575-2.239-4.037l0,0c-0.893,0.072-1.78,0.107-2.64,0.107
		C13.394,33.654,10.8,33.082,9.714,32.082z M19.728,33.527c0.625,1.443,1.372,2.781,2.224,3.98c4.157-1.434,7.716-3.244,9.793-4.98
		c-0.729-1.494-1.619-2.689-2.647-3.555c-0.201,0.685-0.514,1.292-0.93,1.809c0.484,0.369,0.729,0.806,0.729,1.298
		c0,1.061-1.006,1.72-2.625,1.72c-1.035,0-2.146-0.277-3.056-0.762C22.101,33.258,20.929,33.422,19.728,33.527z M23.569,32.965
		c0.826,0.391,1.793,0.61,2.701,0.61c1.16,0,2.401-0.394,2.401-1.496c0-0.422-0.218-0.8-0.649-1.128
		c-0.603,0.68-1.389,1.174-2.34,1.469C25.03,32.623,24.321,32.807,23.569,32.965z M9.952,31.994c1.092,0.915,3.586,1.438,6.9,1.438
		c0.83,0,1.687-0.034,2.548-0.102c-0.419-1.004-0.782-2.063-1.081-3.152C15.139,30.527,12.252,31.154,9.952,31.994z M18.544,30.152
		c0.301,1.093,0.668,2.154,1.091,3.158c1.128-0.096,2.23-0.244,3.282-0.443c-1.147-0.705-1.775-1.693-1.775-2.807
		c0-0.038,0-0.075,0.002-0.112C20.28,29.993,19.407,30.063,18.544,30.152z M21.367,29.938c-0.002,0.04-0.003,0.081-0.003,0.123
		c0,1.099,0.67,2.071,1.887,2.742c0.846-0.17,1.641-0.371,2.365-0.596c0.902-0.28,1.648-0.746,2.223-1.385
		c-0.91-0.58-2.529-0.938-4.277-0.938C22.847,29.884,22.108,29.902,21.367,29.938z M29.161,28.736
		c1.074,0.881,2.002,2.105,2.759,3.641c1.202-1.043,1.84-2.025,1.899-2.922c0.037-0.574-0.171-1.116-0.619-1.611
		c-0.732-0.811-2.083-1.468-3.908-1.906c0.126,1.004,0.082,1.944-0.131,2.797V28.736L29.161,28.736z M17.474,25.742
		c-4.437,0.693-7.504,2.07-8.213,3.693c-0.297,0.678-0.189,1.404,0.32,2.156c0.053,0.079,0.116,0.156,0.188,0.23
		c2.326-0.861,5.258-1.506,8.492-1.863l0,0l0,0C17.903,28.609,17.639,27.193,17.474,25.742z M23.562,29.66
		c1.831,0,3.473,0.369,4.423,0.991c0.421-0.519,0.731-1.134,0.924-1.833c-1.202-0.951-2.56-1.432-4.034-1.432
		c-0.768,0-3.25,0.17-3.49,2.326C22.12,29.678,22.851,29.66,23.562,29.66z M17.694,25.709c0.166,1.454,0.432,2.875,0.791,4.226
		c0.887-0.095,1.785-0.165,2.672-0.21c0.236-2.375,2.897-2.563,3.717-2.563c1.494,0,2.87,0.478,4.094,1.42
		c0.191-0.824,0.223-1.73,0.092-2.698c-1.674-0.377-3.713-0.575-5.902-0.575C21.339,25.309,19.452,25.446,17.694,25.709z
		 M23.157,25.084c2.17,0,4.193,0.194,5.867,0.563c-0.406-2.535-1.842-5.115-3.957-7.1c-1.104-1.037-2.395-1.608-3.633-1.608
		c-1.966,0-3.949,1.547-3.949,5.003c0,1.203,0.063,2.395,0.185,3.545C19.437,25.223,21.331,25.084,23.157,25.084z"/>
	<path fill-rule="evenodd" clip-rule="evenodd" fill="#999999" d="M30.781,45.324c0,1.185,0.958,1.749,1.79,1.749h2.514
		c1.047,0,1.847-0.772,1.847-1.923c0-1.889-2.458-1.415-2.458-2.365c0-0.364,0.33-0.599,0.922-0.599
		c0.366,0,0.756,0.059,1.087,0.152l0.048-1.185c-0.355-0.059-0.733-0.105-1.076-0.105c-1.654,0-2.494,0.845-2.494,1.865
		c0,1.982,2.619,1.33,2.619,2.403c0,0.388-0.2,0.604-0.779,0.604h-1.865c-0.438,0-0.754-0.016-0.754-0.721v-3.965h-2.352v1.088
		h0.125c0.492,0,0.826,0.287,0.826,0.748L30.781,45.324L30.781,45.324z M32.382,39.57c0-0.505-0.426-0.904-0.946-0.904
		s-0.934,0.412-0.934,0.904c0,0.504,0.413,0.915,0.934,0.915S32.382,40.074,32.382,39.57L32.382,39.57z M52.507,45.703
		c-0.311,0.131-0.689,0.222-1.23,0.222c-0.43,0-0.686-0.242-0.686-0.611c0-0.461,0.35-0.91,1.916-0.91V45.703L52.507,45.703z
		 M53.991,46.354l0.001-3.275c0-1.244-0.522-1.994-2.38-1.994c-0.742,0-1.485,0.15-2.065,0.357l0.128,1.233
		c0.486-0.276,1.184-0.449,1.705-0.449c0.836,0,1.127,0.312,1.127,0.91v0.312c-1.962,0-3.332,0.726-3.332,2.097
		c0,0.923,0.604,1.51,1.648,1.51C52.206,47.054,53.328,46.694,53.991,46.354L53.991,46.354z M28.526,38.534h-1.483v6.761
		c0,0.739,0.097,1.061,0.36,1.358c0.229,0.25,0.625,0.405,1.08,0.405c0.372,0,0.768-0.084,1.068-0.215
		c0.06-0.023,0.127-0.057,0.127-0.057l-0.311-1.204l-0.141,0.046c-0.145,0.047-0.264,0.072-0.384,0.072
		c-0.253,0-0.317-0.132-0.317-0.596V38.534L28.526,38.534z M47.359,44.045c0,1.162-0.556,1.749-1.286,1.749
		c-0.857,0-1.287-0.599-1.287-1.772c0-1.173,0.648-1.679,1.311-1.679C46.966,42.343,47.359,42.941,47.359,44.045L47.359,44.045z
		 M48.89,43.965c0-1.967-1.055-2.865-2.689-2.865c-1.75,0-2.943,1.289-2.943,3.072c0,2.037,1.055,2.877,2.688,2.877
		C47.673,47.049,48.89,45.76,48.89,43.965L48.89,43.965z M41.204,43.93c0,1.416-0.614,1.945-1.449,1.945
		c-0.324,0-0.566-0.035-0.775-0.104v-3.138c0.186-0.158,0.72-0.356,1.213-0.356C40.942,42.277,41.204,42.86,41.204,43.93
		L41.204,43.93z M42.757,43.78c0-1.691-0.725-2.681-2.121-2.681c-0.671,0-1.271,0.209-1.65,0.492l0.001-1.666h-1.482v6.847
		c0.66,0.184,1.302,0.276,2.136,0.276C41.622,47.049,42.757,45.713,42.757,43.78"/>
	<path fill-rule="evenodd" clip-rule="evenodd" fill="#999999" d="M37.504,38.098v1.828h1.483v-1.828H37.504L37.504,38.098z
		 M41.029,38.098h-1.483v1.828h1.483V38.098z M39.546,38.098 M44.579,38.098h-1.482v1.828h1.482V38.098z M43.097,38.098
		 M45.093,38.098c0.295,1.331,1.25,1.943,2.753,1.943c0.718,0,1.544-0.564,2.561-0.504c0.782,0.047,1.53,0.447,1.944,0.504
		c1.516,0.206,2.572-0.76,2.572-1.888c0-0.019,0-0.037-0.001-0.056h-1.34c0.024,0.058,0.038,0.122,0.038,0.194
		c0,0.38-0.486,0.723-1.201,0.609c-0.435-0.068-1.229-0.49-2.055-0.511c-0.908-0.023-1.707,0.5-2.275,0.5
		c-0.755,0-1.243-0.26-1.459-0.792L45.093,38.098L45.093,38.098z M55.327,38.098c0.258,1.346,1.178,1.932,2.523,1.932
		c0.613,0,1.182-0.115,1.576-0.266L59.31,38.51c-0.313,0.162-0.74,0.242-1.135,0.242c-0.597,0-0.973-0.244-1.176-0.654H55.327
		L55.327,38.098z M62.214,38.098v1.828h1.482v-1.828H62.214L62.214,38.098z M63.978,38.098c0.229,1.204,1.027,1.941,2.209,1.941
		c0.888,0,0.5-0.004,0.5-0.004c0.696,0,1.777-0.489,2.514-0.809v-1.129h-1.483v0.357c-0.362,0.248-0.936,0.355-1.25,0.355
		c-0.455,0-0.77-0.233-0.928-0.713H63.978"/>
	<path fill-rule="evenodd" clip-rule="evenodd" fill="#999999" d="M38.987,38.098v-3.891h-2.316v1.067h0.121
		c0.482,0,0.712,0.281,0.712,0.733v2.09H38.987L38.987,38.098z M41.029,38.098V36.73c0-0.885,0.35-1.41,1.032-1.41
		c0.684,0,1.035,0.525,1.035,1.41v1.367h1.482v-2.195c0-0.988-0.822-1.818-2.219-1.818h-0.549c-1.455,0-2.266,0.83-2.266,1.818
		v2.195H41.029L41.029,38.098z M46.63,38.098c-0.09-0.219-0.132-0.483-0.129-0.795h3.57c0.035-0.242,0.046-0.473,0.046-0.668
		c0-1.415-0.741-2.555-2.423-2.555c-1.727,0-2.699,1.289-2.699,3.038c0,0.362,0.033,0.688,0.098,0.979H46.63L46.63,38.098z
		 M54.923,38.098c-0.05-1.787-2.443-1.313-2.443-2.236c0-0.355,0.357-0.664,0.937-0.664c0.359,0,0.742,0.057,1.066,0.149
		l0.046-1.163c-0.348-0.057-0.719-0.104-1.055-0.104c-1.622,0-2.445,0.829-2.445,1.83c0,1.806,2.235,1.438,2.554,2.188H54.923
		L54.923,38.098z M56.999,38.098c-0.133-0.268-0.191-0.605-0.191-0.991c0-1.081,0.475-1.771,1.414-1.771
		c0.371,0,0.729,0.092,1.043,0.207l0.15-1.277c-0.371-0.104-0.789-0.161-1.183-0.161c-2.04,0-2.978,1.369-2.978,3.152
		c0,0.309,0.024,0.589,0.072,0.843L56.999,38.098L56.999,38.098z M63.696,38.098v-3.891H61.38v1.067h0.122
		c0.482,0,0.712,0.281,0.712,0.733v2.09H63.696L63.696,38.098z M65.539,38.098c-0.077-0.234-0.118-0.529-0.118-0.883
		c0-1.427,0.66-2,1.514-2c0.257,0,0.514,0.035,0.782,0.092v2.791H69.2v-6.257h-1.483v2.249c-0.257-0.035-0.49-0.047-0.735-0.047
		c-1.928,0-3.072,1.346-3.072,3.294c0,0.271,0.023,0.524,0.068,0.761H65.539L65.539,38.098z M39.173,32.573
		c0-0.495-0.418-0.886-0.928-0.886s-0.915,0.402-0.915,0.886c0,0.495,0.405,0.897,0.915,0.897S39.173,33.068,39.173,32.573
		L39.173,32.573z M48.646,36.301h-2.121c0.081-0.689,0.51-1.139,1.124-1.139C48.274,35.162,48.669,35.588,48.646,36.301
		L48.646,36.301z M63.882,32.573c0-0.495-0.416-0.886-0.926-0.886c-0.511,0-0.916,0.402-0.916,0.886
		c0,0.495,0.405,0.897,0.916,0.897C63.466,33.471,63.882,33.068,63.882,32.573"/>
</g>
<rect fill="none" width="72" height="72"/>
</svg>
