<?xml version="1.0" encoding="utf-8"?>
<!-- Generator: Adobe Illustrator 15.1.0, SVG Export Plug-In . SVG Version: 6.00 Build 0)  -->
<!DOCTYPE svg PUBLIC "-//W3C//DTD SVG 1.1//EN" "http://www.w3.org/Graphics/SVG/1.1/DTD/svg11.dtd">
<svg version="1.1" id="Layer_1" xmlns="http://www.w3.org/2000/svg" xmlns:xlink="http://www.w3.org/1999/xlink" x="0px" y="0px"
	 width="72px" height="72px" viewBox="0 0 72 72" enable-background="new 0 0 72 72" xml:space="preserve">
<g>
	<path fill="#999999" d="M70.384,26.502v3.426c-1.574-1.437-3.922-2.348-5.635-2.348c-0.994,0-1.769,0.193-2.404,0.69
		c-0.662,0.442-0.939,1.022-0.939,1.796c0,1.077,0.774,2.072,2.35,3.066c2.845,1.769,4.281,2.707,4.42,2.763
		c1.574,1.299,2.348,2.929,2.348,4.862c0,1.631-0.58,2.984-1.713,4.061c-1.049,1.133-2.486,1.631-4.199,1.631
		c-2.21,0-4.199-0.635-5.912-1.934v-3.84c1.574,2.071,3.426,3.066,5.553,3.066c1.133,0,1.99-0.277,2.652-0.912
		c0.498-0.525,0.773-1.077,0.773-1.713c0-1.215-0.773-2.349-2.348-3.426c-1.437-0.994-2.929-1.934-4.42-2.846
		c-1.575-1.299-2.35-2.79-2.35-4.365c0-1.686,0.636-3.121,1.769-4.116c1.161-0.995,2.708-1.491,4.642-1.491
		C66.6,24.873,68.893,25.508,70.384,26.502z"/>
	<path fill="#999999" d="M55.576,26.861v3.288c-2.569-1.521-5.222-2.293-7.569-2.293s-4.42,0.772-5.967,2.293
		c-1.575,1.547-2.432,3.48-2.432,5.746c0,2.432,0.773,4.365,2.432,5.774c1.547,1.492,3.619,2.293,6.105,2.293
		c2.514,0,4.917-0.801,7.348-2.432v3.344c-2.348,1.215-4.918,1.85-7.625,1.85c-3.618,0-6.492-1.188-8.619-3.618
		c-1.851-1.989-2.707-4.338-2.707-6.907c0-3.204,1.077-5.856,3.205-7.984c2.21-2.072,5-3.148,8.342-3.148
		C50.161,25.066,52.786,25.729,55.576,26.861z"/>
	<rect x="30.215" y="25.148" fill="#999999" width="3.039" height="21.301"/>
	<path fill="#999999" d="M13.225,27.193c0.249,0,0.415,0.304,0.415,0.58c0.027,0.304-0.139,0.524-0.415,0.524l0,0v0.166l0,0
		c0.331,0,0.636-0.304,0.608-0.718c0-0.359-0.249-0.691-0.608-0.691l0,0V27.193z M13.225,27.193L13.225,27.193v-0.139
		c-0.358,0-0.636,0.332-0.636,0.719c0,0.414,0.277,0.69,0.636,0.69v-0.166c-0.276,0-0.442-0.276-0.442-0.552
		C12.782,27.441,12.948,27.221,13.225,27.193z"/>
	<path fill="#999999" d="M14.717,28.408c0.11,0.027,0.221,0,0.331-0.055l0,0l-0.138,0.248l-0.69-0.138l0,0
		c0.082-0.028,0.11-0.166,0.11-0.249l0.138-0.746c0.027-0.109,0.056-0.248-0.027-0.303l0,0l0.332,0.055l0,0
		c-0.084,0.027-0.111,0.193-0.111,0.276l-0.166,0.856L14.717,28.408z"/>
	<path fill="#999999" d="M15.739,27.746c0.027-0.083,0.082-0.222,0-0.277v-0.027l0.304,0.111l0,0
		c-0.083,0.027-0.11,0.165-0.138,0.248l-0.249,0.719c-0.028,0.082-0.083,0.221,0,0.304l0,0l-0.304-0.11l0,0
		c0.082,0,0.11-0.166,0.138-0.249L15.739,27.746z"/>
	<path fill="#999999" d="M17.093,28.242c-0.027-0.109-0.11-0.192-0.193-0.221c-0.083-0.055-0.221-0.055-0.276,0.056
		c-0.11,0.249,0.415,0.497,0.276,0.856c-0.111,0.193-0.359,0.276-0.607,0.166c-0.084-0.027-0.193-0.083-0.249-0.166l0.056-0.249
		c0.055,0.11,0.165,0.249,0.275,0.304c0.083,0.028,0.249,0.028,0.305-0.082c0.138-0.305-0.415-0.498-0.249-0.885
		c0.11-0.221,0.358-0.221,0.553-0.138c0.083,0.056,0.138,0.083,0.221,0.166L17.093,28.242z"/>
	<path fill="#999999" d="M17.203,29.403c0.028-0.056,0.056-0.083,0.083-0.138l0.387-0.637c0.055-0.082,0.139-0.193,0.11-0.275l0,0
		l0.276,0.166l0,0c-0.11,0-0.166,0.138-0.221,0.193l-0.414,0.662c0,0-0.028,0.028-0.028,0.056L17.203,29.403z"/>
	<path fill="#999999" d="M19.828,30.066c0.138,0.166,0.165,0.387-0.028,0.525c-0.166,0.165-0.387,0.109-0.524-0.028
		c-0.028-0.027-0.056-0.083-0.056-0.11c0.11,0.11,0.276,0.139,0.442,0.027c0.11-0.138,0.11-0.248,0-0.359
		c0-0.027-0.056-0.055-0.083-0.082l-0.663,0.607c-0.083,0.083-0.166,0.139-0.138,0.248l0,0l-0.083-0.109l-0.056-0.028
		c0.083,0.028,0.11-0.193,0.166-0.249l0.248-0.082l0.332-0.442c0.055-0.056,0.166-0.138,0.139-0.222h0.027L19.828,30.066z"/>
	<path fill="#999999" d="M20.601,31.31c0.166,0.249,0,0.524-0.248,0.69c-0.083,0.027-0.139,0.056-0.193,0.083v0.166
		c0.11,0,0.221-0.056,0.332-0.11c0.304-0.193,0.441-0.58,0.248-0.885c-0.11-0.221-0.359-0.304-0.58-0.304v0.193
		C20.325,31.088,20.519,31.144,20.601,31.31z M20.159,32.083c-0.193,0.056-0.387,0-0.47-0.166c-0.165-0.248,0-0.524,0.249-0.69
		c0.055-0.027,0.138-0.083,0.221-0.083V30.95c-0.138,0.028-0.248,0.056-0.359,0.11c-0.331,0.221-0.441,0.636-0.248,0.912
		c0.11,0.193,0.359,0.304,0.607,0.276V32.083z"/>
	<path fill="#999999" d="M20.407,32.967c-0.109,0.056-0.193,0.083-0.221,0.166l0,0l-0.11-0.276l0,0c0.11,0.056,0.166,0.028,0.276,0
		l0.773-0.276c0.083-0.027,0.166-0.055,0.193-0.166l0,0l0.083,0.222l0,0c0,0.027-0.027,0.027-0.027,0.055l-0.027,0.028l-0.663,0.911
		l0.718-0.249c0.11-0.055,0.193-0.082,0.222-0.192l0,0l0.082,0.304l0,0c-0.082-0.083-0.165-0.055-0.275,0l-1.051,0.387
		c0-0.139,0.056-0.221,0.139-0.332l0.607-0.828L20.407,32.967z"/>
	<path fill="#999999" d="M20.767,34.625l0.028,0.221c0,0.11,0.055,0.221,0.165,0.276l0,0l-0.275-0.027l-0.111-0.69l0,0
		c0.056,0.082,0.193,0.027,0.276,0.027l0.774-0.139c0.082,0,0.221-0.027,0.248-0.11l0,0l0.11,0.525c0,0.055,0,0.083,0,0.083l0,0
		l-0.221,0.055l0,0c0.056-0.083,0.056-0.138,0.056-0.221c-0.028-0.056-0.028-0.11-0.056-0.166l-0.359,0.056l0.028,0.193
		c0,0.027,0,0.055,0.027,0.083l0,0l-0.221,0.027l0,0c0.055-0.027,0.055-0.11,0.027-0.166l-0.027-0.11L20.767,34.625z"/>
	<path fill="#999999" d="M20.988,35.702c-0.11,0-0.193,0-0.249,0.083l0,0v-0.332l0,0c0.056,0.111,0.139,0.111,0.249,0.111h0.829
		c0.109,0,0.193,0,0.248-0.083l0,0v0.249l0,0c-0.027,0.027-0.027,0.027-0.055,0.027l-0.028,0.027l-0.938,0.663l0.745,0.027
		c0.11,0,0.193,0,0.276-0.11l0,0v0.332l0,0c-0.083-0.111-0.166-0.111-0.276-0.111h-1.133c0.056-0.138,0.139-0.193,0.249-0.248
		l0.884-0.636H20.988z"/>
	<path fill="#999999" d="M21.596,37.995c0.11-0.056,0.166-0.138,0.193-0.249c0-0.082,0-0.221-0.138-0.248
		c-0.276-0.055-0.387,0.525-0.746,0.47c-0.221-0.056-0.387-0.276-0.332-0.553c0.027-0.083,0.056-0.193,0.111-0.276h0.275
		c-0.138,0.083-0.221,0.193-0.248,0.332c-0.027,0.11,0.027,0.248,0.166,0.275c0.304,0.056,0.359-0.524,0.773-0.441
		c0.248,0.055,0.304,0.276,0.275,0.497c-0.027,0.083-0.055,0.166-0.109,0.249L21.596,37.995z"/>
	<path fill="#999999" d="M21.348,38.714c0.083,0.055,0.221,0.11,0.304,0.027l0,0l-0.11,0.304l0,0
		c-0.028-0.083-0.166-0.11-0.249-0.138l-0.719-0.249c-0.082-0.027-0.221-0.082-0.275-0.027H20.27l0.11-0.304l0,0
		c0.027,0.083,0.166,0.138,0.249,0.165L21.348,38.714z"/>
	<path fill="#999999" d="M20.739,40.233c0.11-0.028,0.193-0.083,0.249-0.193c0.027-0.083,0.056-0.193-0.056-0.276
		c-0.248-0.111-0.525,0.414-0.856,0.248c-0.193-0.109-0.276-0.359-0.165-0.607c0.055-0.083,0.11-0.166,0.193-0.249l0.248,0.083
		c-0.139,0.027-0.248,0.139-0.331,0.249c-0.028,0.083-0.028,0.249,0.083,0.304c0.275,0.166,0.496-0.387,0.884-0.193
		c0.221,0.11,0.221,0.359,0.11,0.525c-0.027,0.082-0.083,0.166-0.139,0.221L20.739,40.233z"/>
	<path fill="#999999" d="M19.993,40.289c0.028-0.056,0.111-0.084,0.166-0.028c0.055,0.028,0.083,0.11,0.027,0.166
		c-0.027,0.056-0.11,0.083-0.165,0.027C19.966,40.427,19.966,40.344,19.993,40.289z"/>
	<path fill="#999999" d="M5.737,39.598c-0.137,0.027-0.33,0.055-0.33,0.166l0,0l-0.111-0.221l1.437-0.249
		c-0.028,0.165-0.028,0.193-0.138,0.304l-0.607,0.636c-0.084,0.056-0.166,0.138-0.193,0.249l0,0l-0.139-0.222h0.027
		c0.055-0.027,0.111-0.11,0.166-0.138l0.635-0.664L5.737,39.598z"/>
	<path fill="#999999" d="M6.015,38.438c0.109-0.027,0.193-0.056,0.221-0.166l0,0l0.082,0.332l0,0
		c-0.082-0.083-0.165-0.056-0.275-0.027l-0.773,0.221c-0.111,0.027-0.193,0.055-0.221,0.165l0,0l-0.084-0.276l0,0
		c0.028,0,0.028-0.027,0.057-0.027l0.027-0.027l0.717-0.912l-0.744,0.193c-0.111,0.056-0.193,0.056-0.222,0.166l0,0l-0.083-0.304
		l0,0c0.083,0.083,0.166,0.056,0.276,0.027l1.077-0.304c0,0.139-0.055,0.193-0.139,0.304l-0.662,0.856L6.015,38.438z"/>
	<path fill="#999999" d="M4.882,36.945c-0.083,0.027-0.221,0.027-0.277,0.111l0,0l-0.027-0.332l0,0
		c0.057,0.082,0.193,0.055,0.305,0.055l0.746-0.082c0.082,0,0.248,0,0.275-0.111l0,0l0.027,0.332l0,0
		c-0.055-0.083-0.193-0.056-0.275-0.056L4.882,36.945z"/>
	<path fill="#999999" d="M4.937,35.315c-0.138-0.056-0.303-0.138-0.359-0.027l0,0v-0.249l1.382,0.525
		c-0.11,0.11-0.11,0.138-0.276,0.193l-0.855,0.221c-0.084,0.027-0.223,0.027-0.277,0.11H4.522L4.55,35.84h0.027
		c0.027,0,0.139-0.027,0.193-0.027l0.885-0.248L4.937,35.315z"/>
	<path fill="#999999" d="M5.903,34.211l0.084-0.194c0.055-0.11,0.027-0.221-0.028-0.331l0,0l0.249,0.138l-0.193,0.691l0,0
		c-0.027-0.11-0.166-0.139-0.25-0.139l-0.744-0.193c-0.084-0.027-0.222-0.083-0.277,0l0,0l0.139-0.524c0-0.028,0-0.056,0-0.084
		v-0.027l0.221,0.083l0,0c-0.082,0.028-0.11,0.083-0.139,0.166c0,0.056-0.027,0.11-0.027,0.165l0.387,0.111l0.027-0.193
		c0.027-0.027,0.027-0.056,0.027-0.083l0,0l0.193,0.056l0,0c-0.055,0-0.082,0.082-0.082,0.138L5.462,34.1L5.903,34.211z"/>
	<path fill="#999999" d="M5.323,32.387c0.084-0.221,0.277-0.276,0.441-0.193c0.166,0.083,0.223,0.249,0.223,0.387l0.414-0.055
		c0.138-0.028,0.275-0.083,0.387-0.139l-0.056,0.139c-0.056,0.082-0.11,0.11-0.193,0.138l-0.358,0.056l-0.332,0.027
		c0.055-0.139,0.027-0.304-0.139-0.387c-0.139-0.056-0.248,0-0.303,0.11c0,0.056,0,0.083-0.029,0.11l0.83,0.387
		c0.082,0.028,0.221,0.111,0.275,0.028h0.027l-0.137,0.304l0,0c0-0.083-0.139-0.139-0.222-0.193l-0.718-0.305
		c-0.084-0.027-0.193-0.11-0.277-0.027l0,0L5.323,32.387z"/>
	<path fill="#999999" d="M6.401,30.979c-0.111,0-0.193,0.082-0.249,0.165s-0.083,0.193,0.028,0.276
		c0.221,0.139,0.552-0.332,0.855-0.139c0.193,0.111,0.249,0.388,0.111,0.608c-0.084,0.083-0.139,0.166-0.222,0.221l-0.249-0.083
		c0.139-0.027,0.277-0.11,0.359-0.221c0.027-0.083,0.055-0.248-0.055-0.332c-0.249-0.165-0.553,0.359-0.885,0.111
		c-0.221-0.139-0.193-0.359-0.055-0.553c0.027-0.055,0.11-0.139,0.166-0.193L6.401,30.979z"/>
	<path fill="#999999" d="M6.954,30.37c-0.084-0.083-0.166-0.166-0.25-0.138H6.677l0.221-0.249l0,0
		c-0.027,0.083,0.111,0.193,0.166,0.249l0.58,0.497c0.056,0.056,0.166,0.165,0.249,0.138l0,0l-0.221,0.249l0,0
		c0.027-0.11-0.083-0.193-0.166-0.249L6.954,30.37z"/>
	<path fill="#999999" d="M8.61,29.403l-0.331-0.47l-0.11,0.083c-0.055,0.056-0.11,0.11-0.139,0.193l0,0l-0.082-0.222l0,0
		c0.027,0,0.055-0.027,0.055-0.027l0.553-0.414c0.027,0,0.055-0.027,0.055-0.056h0.028l0.083,0.222v0.027
		c-0.056-0.056-0.111-0.027-0.166,0l-0.139,0.11l0.415,0.553H8.61z"/>
	<path fill="#999999" d="M10.158,28.464l-0.166,0.083v0.166l0.276-0.139l0.221,0.221c0.084,0.111,0.111,0.111,0.056,0.193l0,0
		l0.331-0.138l0,0c-0.11-0.027-0.193-0.11-0.275-0.193l-0.608-0.636v0.249L10.158,28.464L10.158,28.464z M9.992,29.266V29.21
		c0,0.027,0.028,0.027,0.056,0.027l0,0L9.992,29.266z M9.992,28.547l-0.138,0.055l-0.056-0.524l0.193,0.193v-0.249l-0.165-0.165
		l-0.249,0.138l0,0c0.11-0.027,0.11,0.083,0.11,0.166l0.11,0.884c0,0.11,0.028,0.222-0.056,0.331h0.028l0.221-0.109V29.21
		c-0.056-0.028-0.056-0.083-0.056-0.166l-0.055-0.276l0.11-0.055V28.547z"/>
	<path fill="#999999" d="M11.567,27.524c-0.083-0.056-0.193-0.083-0.276-0.056c-0.11,0.028-0.222,0.111-0.166,0.249
		c0.056,0.249,0.636,0.11,0.719,0.47c0.055,0.193-0.083,0.441-0.332,0.525c-0.11,0.027-0.221,0.027-0.304,0l-0.11-0.222
		c0.11,0.083,0.276,0.11,0.387,0.056c0.11-0.027,0.221-0.111,0.193-0.249c-0.083-0.304-0.636-0.11-0.746-0.524
		c-0.083-0.249,0.11-0.387,0.331-0.442c0.084-0.027,0.166-0.027,0.249-0.027L11.567,27.524z"/>
	<path fill="#999999" d="M12.258,28.021c-0.056,0.028-0.11-0.027-0.138-0.11c0-0.055,0.055-0.11,0.11-0.138
		c0.055,0,0.138,0.055,0.138,0.11S12.341,28.021,12.258,28.021z"/>
	<path fill="#999999" d="M9.412,42.913l-0.056-0.056v0.139l0.028,0.027l-0.028,0.055v0.415l0.083,0.027l0,0
		c-0.027-0.083,0-0.165,0.028-0.249l0.221-0.828l-0.193-0.139v0.028c0.055,0.056,0,0.083-0.056,0.11l-0.083,0.055v0.139l0.166-0.139
		L9.412,42.913z M9.356,42.857l-0.165-0.11l0.165-0.11v-0.139l-0.469,0.387c-0.083,0.056-0.139,0.111-0.249,0.111l0,0l0.222,0.138
		l0,0c-0.028-0.056,0-0.11,0.055-0.165l0.193-0.139l0.248,0.166V42.857L9.356,42.857z M9.356,43.078v0.415l-0.138-0.11l0,0
		c0.083,0,0.083-0.027,0.11-0.139L9.356,43.078z"/>
	<path fill="#999999" d="M10.407,42.996c0.027,0,0.082,0,0.11,0.027c0.193,0.083,0.276,0.248,0.165,0.497
		c-0.055,0.166-0.165,0.249-0.275,0.249v0.139c0.193,0,0.331-0.139,0.414-0.332c0.138-0.305,0.027-0.553-0.248-0.663l-0.166-0.056
		V42.996z M10.38,42.996h0.027v-0.139l-0.139-0.082v0.027c0.056,0.027,0,0.138-0.027,0.193l-0.249,0.553
		c-0.027,0.082-0.056,0.165-0.138,0.193l0,0l0.304,0.138c0.083,0.028,0.166,0.028,0.249,0.028V43.77
		c-0.083,0.027-0.166,0.027-0.222-0.027c-0.027,0-0.083-0.028-0.083-0.028L10.38,42.996z"/>
	<path fill="#999999" d="M11.347,43.852c-0.056-0.027-0.111-0.109-0.084-0.193c0.028-0.082,0.084-0.109,0.166-0.082
		c0.056,0,0.083,0.082,0.083,0.166C11.484,43.824,11.429,43.88,11.347,43.852z"/>
	<path fill="#999999" d="M12.258,44.322c0.11,0,0.193-0.027,0.249-0.084h0.027l-0.11,0.222l-0.553-0.083l0,0
		c0.083-0.027,0.083-0.139,0.083-0.221l0.083-0.58c0.027-0.083,0.027-0.193-0.028-0.221l0,0l0.249,0.027l0,0
		c-0.056,0.027-0.056,0.138-0.083,0.221l-0.083,0.663L12.258,44.322z"/>
	<path fill="#999999" d="M13.418,43.742c0.056-0.111,0.083-0.249,0-0.277l0,0h0.222l-0.387,1.078
		c-0.084-0.083-0.111-0.083-0.166-0.221l-0.193-0.636c-0.027-0.083-0.027-0.193-0.083-0.249l0,0h0.193v0.027
		c0,0.028,0.027,0.111,0.027,0.139l0.193,0.691L13.418,43.742z"/>
	<path fill="#999999" d="M14.634,43.576c-0.083-0.056-0.166-0.083-0.276-0.083c-0.165,0.027-0.276,0.193-0.249,0.415
		c0,0.248,0.166,0.441,0.387,0.414c0.084,0,0.193-0.056,0.249-0.139h0.028l-0.056,0.193c-0.056,0.055-0.138,0.055-0.193,0.083
		c-0.331,0.028-0.553-0.165-0.581-0.497c-0.027-0.332,0.139-0.553,0.415-0.58c0.083-0.027,0.166-0.027,0.249,0L14.634,43.576z"/>
	<path fill="#999999" d="M15.353,44.129h0.165c0.11-0.027,0.194-0.084,0.222-0.166l0,0v0.221l-0.553,0.139l0,0
		c0.082-0.056,0.027-0.166,0.027-0.249l-0.166-0.553c0-0.083-0.027-0.193-0.11-0.221l0,0l0.415-0.11c0.027,0,0.055,0,0.082,0l0,0
		l0.028,0.166l0,0c-0.056-0.056-0.11-0.028-0.166-0.028c-0.056,0.028-0.083,0.028-0.138,0.056l0.082,0.275l0.166-0.027
		c0,0,0.027-0.027,0.056-0.027l0,0l0.027,0.166l0,0c-0.027-0.056-0.083-0.027-0.138-0.027l-0.084,0.027L15.353,44.129z"/>
	<path fill="#999999" d="M16.595,42.857c0-0.055,0-0.082-0.027-0.11l0,0l0.221-0.083l0,0c-0.027,0.027-0.027,0.056,0,0.083
		l0.388,0.69c0.056,0.056,0.083,0.083,0.138,0.111l0,0l-0.221,0.109l0,0c0.027-0.027,0-0.082,0-0.138l-0.387-0.663l0.082,0.967
		c-0.082-0.027-0.109-0.082-0.165-0.138l-0.524-0.553l0.193,0.663c0.027,0.083,0.055,0.166,0.109,0.166h0.028l-0.222,0.082l0,0
		c0.028-0.082,0-0.137-0.027-0.221l-0.193-0.635c0-0.056-0.027-0.111-0.082-0.139l0,0l0.193-0.082l0,0
		c0.027,0.027,0.027,0.027,0.055,0.055l0.525,0.525L16.595,42.857z"/>
	<path fill="#999999" d="M17.369,35.066c-0.056,0.056,0.027,0.139,0.083,0.111c0.055,0,0.11-0.028,0.11,0.027
		c0,0.083-0.083,0.138,0.027,0.304c0.083,0.193,0.276,0.222,0.387,0.222s0.11,0,0.166-0.056c0.027-0.083,0.138-0.11,0.193-0.139
		c0.083,0,0.276,0.083,0.276,0.028c0.027-0.028,0-0.166-0.056-0.222c-0.027-0.027-0.138,0.083-0.193,0.11
		c-0.055,0-0.138,0-0.221-0.027c-0.056-0.027-0.138-0.138-0.222-0.193c-0.055-0.055-0.138-0.027-0.193-0.138
		c-0.055-0.11-0.109-0.166-0.193-0.166C17.534,34.929,17.425,35.012,17.369,35.066z"/>
	<path fill="#999999" d="M9.108,34.956c-0.027,0-0.11-0.055-0.139-0.083c-0.027-0.027-0.082-0.082-0.138-0.082
		s-0.11,0.027-0.138,0.082c0,0.028-0.028,0.083-0.084,0.111c-0.055,0.027-0.193,0.165-0.275,0.221
		c-0.056,0.027-0.139,0.11-0.221,0.11c-0.084,0-0.111-0.083-0.139-0.138c-0.055-0.056-0.11-0.056-0.139,0
		c-0.027,0.027-0.027,0.11-0.027,0.165c0,0.083,0.083,0.056,0.139,0.056c0.027,0,0.138,0,0.166,0c0.027,0,0.082,0.027,0.109,0.055
		c0,0.028,0.056,0.056,0.139,0.083c0.083,0.028,0.248,0,0.304-0.027c0.083,0,0.139-0.138,0.166-0.221c0.028-0.083,0-0.222,0-0.249
		s0.083-0.027,0.138,0c0.028,0,0.084,0,0.111,0C9.136,35.012,9.136,34.956,9.108,34.956z"/>
	<path fill="#999999" d="M19.911,38.576c0.303-0.774,0.469-1.631,0.469-2.543c0-0.884-0.166-1.74-0.469-2.541v2.846l0,0
		c0.055,0,0.11,0.055,0.11,0.11c0,0.083-0.056,0.11-0.11,0.11l0,0V38.576z M19.718,41.2c0.027,0.027,0.055,0.027,0.11,0.056
		c0,0,0.027-0.028,0.027-0.083c0.027-0.028,0-0.056-0.027-0.083c0,0,0-0.027-0.028-0.027c-0.027,0-0.055-0.028-0.082-0.056V41.2
		L19.718,41.2z M19.718,40.592c0.027,0,0.082,0.028,0.11,0.056c0.027,0,0.083-0.056,0.083-0.11c-0.028-0.027-0.028-0.083-0.083-0.11
		c-0.056,0-0.083-0.028-0.11-0.056V40.592L19.718,40.592z M19.718,40.04l0.055,0.027c0.083,0.028,0.027-0.11,0-0.138
		c0,0-0.027,0-0.055-0.027V40.04L19.718,40.04z M19.718,39.072c0.055-0.165,0.138-0.331,0.193-0.496v-2.018
		c-0.056,0-0.111-0.027-0.111-0.11c0-0.056,0.056-0.083,0.111-0.11v-2.846c-0.056-0.166-0.139-0.332-0.193-0.497v1.491l0,0
		c0.027,0,0.082,0.028,0.082,0.083c0,0.028-0.055,0.083-0.082,0.083l0,0V39.072L19.718,39.072z M19.718,41.808h0.027
		c0.055,0.028,0.11,0,0.11-0.083c0-0.027,0-0.11-0.056-0.138c-0.027-0.027-0.055-0.027-0.082-0.056V41.808z M19.358,41.338v-0.027
		v0.193c0.055,0.027,0.166,0.083,0.248,0.166c0.027,0.027,0.056,0.083,0.111,0.138v-0.276
		C19.579,41.449,19.469,41.366,19.358,41.338L19.358,41.338z M19.358,41.034c0.11,0.056,0.221,0.11,0.359,0.166v-0.193
		c-0.084-0.028-0.222-0.083-0.359-0.138V41.034L19.358,41.034z M19.358,40.454c0.11,0.028,0.248,0.083,0.359,0.138v-0.221
		c-0.028,0-0.084-0.027-0.111-0.027c-0.055-0.027-0.138-0.083-0.248-0.11V40.454L19.358,40.454z M19.358,39.957
		c0.11,0.027,0.221,0.055,0.359,0.083v-0.138c-0.111-0.028-0.332-0.084-0.359-0.111V39.957L19.358,39.957z M19.358,39.764
		c0.11-0.221,0.248-0.442,0.359-0.691v-4.42c-0.056-0.027-0.084-0.055-0.084-0.083c0-0.055,0.028-0.083,0.084-0.083v-1.491
		c-0.111-0.222-0.249-0.47-0.359-0.691v1.188c0.027,0.027,0.082,0.055,0.082,0.11s-0.055,0.11-0.082,0.138v1.216
		c0,0.028,0.027,0.056,0.027,0.11c0,0.028-0.027,0.056-0.027,0.111v1.851c0.027,0,0.082,0.028,0.082,0.083
		c0,0.027-0.055,0.083-0.082,0.083V39.764z M19.358,41.311c-0.166-0.055-0.498-0.166-0.885-0.221v0.166h0.083
		c0.083,0,0.304,0.11,0.304,0.248c0,0.139-0.027,0.166-0.275,0.166h-0.111v0.11c0.166,0,0.387,0.027,0.442,0.056
		c0.056,0.027,0.166,0.055,0.166,0.165s-0.028,0.222-0.332,0.222h-0.276v0.166h0.276c0.332,0,0.497-0.111,0.497-0.388
		c0-0.221-0.165-0.276-0.221-0.304l-0.027-0.027c0.027-0.027,0.055-0.083,0.055-0.166c0-0.055-0.027-0.083-0.027-0.11
		c0.083,0.027,0.166,0.056,0.276,0.083c0,0.027,0.027,0.027,0.056,0.027V41.311L19.358,41.311z M18.474,40.841
		c0.249,0.028,0.47,0.083,0.636,0.11c0.056,0.027,0.138,0.056,0.249,0.083v-0.165c-0.249-0.084-0.553-0.139-0.885-0.193V40.841
		L18.474,40.841z M18.474,40.261c0.222,0,0.442,0.028,0.636,0.11c0.056,0,0.138,0.027,0.249,0.083v-0.221
		c-0.249-0.11-0.58-0.193-0.746-0.193h-0.139V40.261L18.474,40.261z M18.474,39.874c0.222,0,0.498,0,0.608,0.028
		c0.055,0,0.165,0.027,0.276,0.055v-0.166H19.33l0.028-0.027v-2.569c-0.056,0-0.083-0.056-0.083-0.083
		c0-0.055,0.027-0.083,0.083-0.083v-1.851c-0.056,0.027-0.111,0.055-0.166,0.055c-0.083,0-0.166-0.083-0.166-0.166
		c0-0.11,0.083-0.193,0.166-0.193c0.055,0,0.11,0.028,0.166,0.083V33.74c-0.028,0-0.056,0-0.056,0c-0.083,0-0.138-0.055-0.138-0.138
		c0-0.056,0.055-0.11,0.138-0.11c0,0,0.027,0,0.056,0v-1.188c-0.139-0.193-0.276-0.414-0.415-0.607c0-0.11-0.083-0.193-0.193-0.249
		c-0.083-0.082-0.138-0.166-0.193-0.221c0.028-0.055,0.056-0.083,0.083-0.139c0.11-0.138,0.166-0.275,0.166-0.414
		c0-0.027,0-0.055,0-0.055s0,0,0.027,0c0.249,0,0.442-0.193,0.442-0.415c0-0.11-0.056-0.221-0.166-0.276
		c0.027-0.055,0.056-0.082,0.056-0.138v-0.276c0-0.11-0.083-0.193-0.166-0.193h-0.525v0.193h0.525v0.276h-0.525v0.138
		c0.056-0.027,0.111-0.027,0.139-0.027c0.193,0,0.497,0.166,0.497,0.304c0,0.139-0.138,0.222-0.276,0.222
		c-0.166,0-0.304-0.111-0.166-0.111c0.139,0,0.305-0.165,0.056-0.165c-0.138,0-0.221,0.027-0.249,0.083v0.275
		c0,0,0.028-0.027,0.056-0.027c0.083-0.027,0.083,0.083,0.083,0.193c0,0.111-0.027,0.221-0.11,0.332c0,0-0.028,0.027-0.028,0.055
		v0.525h0.056c0.056,0,0.249,0.027,0.249,0.138c0,0.083-0.111,0.11-0.193,0.11h-0.111v0.193h0.249v3.813l-0.249,0.028v0.083
		c0.276-0.027,0.47-0.027,0.498-0.027c0.055,0,0.138-0.028,0.138,0.055s0.027,0.221-0.193,0.248l-0.442,0.028v0.193
		c0.028-0.056,0.083-0.11,0.111-0.11c0.11,0,0.221,0.11,0.221,0.248v3.012c0,0.083-0.083,0.139-0.193,0.139h-0.139V39.874z
		 M18.474,41.09c-0.138-0.027-0.304-0.027-0.441-0.027h-0.056v0.193h0.497V41.09L18.474,41.09z M17.977,40.813
		c0.166,0,0.332,0.027,0.497,0.027v-0.165c-0.055,0-0.082,0-0.138,0c-0.138-0.028-0.249-0.028-0.359-0.028V40.813L17.977,40.813z
		 M17.977,40.233c0.138,0,0.304,0,0.497,0.027V40.04h-0.469h-0.028V40.233L17.977,40.233z M17.977,39.93
		c0.028-0.027,0.056-0.027,0.138-0.056c0.056,0,0.194,0,0.359,0v-0.138h-0.331c-0.056,0-0.138,0-0.138-0.111
		c0-0.055-0.028-0.11-0.028-0.138V39.93L17.977,39.93z M18.474,29.32H18.17h-0.027c-0.028,0-0.056,0-0.083,0h-0.083v0.166h0.083
		v0.275h-0.083v0.193h0.056v0.415h-0.056v0.166c0.138,0.11,0.138,0.524,0.138,0.524s-0.082-0.055-0.138-0.082v0.138
		c0.166,0.056,0.11,0.304,0.11,0.304h-0.11v0.166h0.497v-0.525c-0.055,0.056-0.11,0.111-0.138,0.056
		c-0.056-0.028-0.027-0.249-0.027-0.331c0-0.056,0.055-0.193,0.165-0.277v-0.275c-0.027,0.055-0.055,0.082-0.082,0.138
		c-0.083,0.138-0.083,0.359-0.222,0.193v-0.497c0,0,0.139-0.083,0.304-0.139V29.79h-0.275l-0.028-0.276h0.304V29.32L18.474,29.32z
		 M17.977,42.389h0.497v-0.166h-0.497V42.389L17.977,42.389z M18.474,31.834v0.193h-0.497v-0.193H18.474L18.474,31.834z
		 M18.474,35.868v0.083l-0.497,0.027v-0.11H18.474L18.474,35.868z M18.474,36.255v0.193c-0.055,0.056-0.082,0.11-0.11,0.138
		c-0.027,0.056-0.193,0.471-0.249,0.691c-0.027,0.082-0.082,0.275-0.138,0.469v-0.58l0.028-0.082l-0.028,0.027v-0.193l0.11-0.056
		c0.027-0.138,0.083-0.276,0.083-0.276c0.028-0.082-0.027-0.166-0.138-0.166c0,0-0.027,0-0.056,0v-0.138L18.474,36.255
		L18.474,36.255z M18.474,41.67v0.11c-0.055,0-0.11,0-0.138,0.027c-0.083,0-0.222,0-0.359,0V41.67H18.474z M17.977,41.063
		c-0.056,0-0.083,0-0.138,0v0.193h0.138V41.063L17.977,41.063z M17.839,40.813c0.027,0,0.082,0,0.138,0v-0.166
		c-0.056,0-0.11,0-0.138,0V40.813L17.839,40.813z M17.839,40.233c0.027,0,0.082,0,0.138,0V40.04c-0.027-0.028-0.056-0.083,0-0.11
		v-0.442c-0.027-0.056-0.056-0.11-0.11-0.139l-0.027-0.027v0.387c0.027,0.083,0.027,0.166,0,0.222V40.233L17.839,40.233z
		 M17.977,29.32h-0.083c-0.027,0-0.027,0-0.055,0v0.635h0.138v-0.193h-0.083v-0.275h0.083V29.32L17.977,29.32z M17.839,42.389h0.138
		v-0.166h-0.138V42.389L17.839,42.389z M17.977,30.37v0.166c-0.027-0.028-0.056-0.028-0.083-0.028s-0.055,0-0.055,0.028V30.37
		H17.977L17.977,30.37z M17.977,30.979v0.138c-0.027,0-0.056,0-0.083,0s-0.027,0-0.055,0V30.95c0.027,0,0.027,0,0.055,0
		S17.949,30.95,17.977,30.979L17.977,30.979z M17.977,31.42v0.166h-0.138V31.42H17.977L17.977,31.42z M17.977,31.834v0.193h-0.138
		v-0.193H17.977L17.977,31.834z M17.977,35.868v0.11l-0.138,0.027v-0.138H17.977L17.977,35.868z M17.977,36.282v0.138l-0.138,0.028
		v-0.166H17.977L17.977,36.282z M17.977,36.918v0.193l-0.138,0.055v-0.193L17.977,36.918L17.977,36.918z M17.977,37.166v0.58
		c-0.056,0.139-0.11,0.277-0.138,0.387v-0.552c0.027-0.083,0.055-0.166,0.082-0.249C17.921,37.277,17.949,37.222,17.977,37.166
		L17.977,37.166z M17.977,41.67v0.138l-0.138,0.028V41.67H17.977z M17.839,41.063c-0.166,0-0.332,0.027-0.498,0.055v0.139h0.498
		V41.063L17.839,41.063z M17.341,40.841h0.028c0.138-0.027,0.304-0.027,0.47-0.027v-0.166c-0.221,0-0.359,0-0.498,0.028V40.841
		L17.341,40.841z M17.341,40.316c0.111-0.027,0.222-0.056,0.332-0.056c0.055-0.027,0.11-0.027,0.166-0.027V39.93l0,0
		c-0.083,0.138-0.276,0.248-0.47,0.166l-0.028-0.028V40.316L17.341,40.316z M17.839,29.32h-0.027c0,0-0.028,0-0.056,0h-0.415v0.166
		h0.415v0.304h-0.415v0.11c0.166,0.055,0.277,0.139,0.277,0.139v0.607c0,0-0.056,0.11-0.056,0.083
		c-0.028-0.056-0.166-0.359-0.166-0.359c0-0.056-0.027-0.11-0.056-0.138v0.359c0.056,0.027,0.084,0.109,0.084,0.165
		c0.055,0.083,0.027,0.138,0.082,0.222c0.027,0.055,0.056,0.165-0.082,0.165c-0.028,0-0.056,0-0.084-0.027v0.47h0.498V31.42H17.7
		c0,0-0.027-0.248,0.139-0.304V30.95c-0.083,0.028-0.166,0.11-0.166,0.11s-0.027-0.469,0.166-0.524V30.37h-0.027v-0.415h0.027V29.32
		L17.839,29.32z M17.341,42.389h0.498v-0.166h-0.498V42.389L17.341,42.389z M17.839,31.834v0.193h-0.498v-0.193H17.839
		L17.839,31.834z M17.839,35.868v0.138l-0.498,0.027v-0.138L17.839,35.868L17.839,35.868z M17.839,36.282v0.166
		c-0.139,0-0.305,0.027-0.498,0.027v-0.165L17.839,36.282L17.839,36.282z M17.839,36.973v0.193
		c-0.166,0.084-0.332,0.139-0.498,0.222v-0.193C17.534,37.111,17.673,37.057,17.839,36.973L17.839,36.973z M17.839,37.581v0.552
		c-0.027,0.084-0.056,0.139-0.056,0.139c-0.056,0.11-0.165,0.139-0.138,0.193c0,0.083,0.055,0.193,0.027,0.387
		c-0.027,0.166,0.083,0.387,0.166,0.47v0.387c-0.056-0.11-0.139-0.249-0.249-0.359c-0.138-0.193-0.11-0.47-0.11-0.745
		c0-0.056,0-0.139,0.027-0.193c-0.055,0.027-0.11,0.055-0.166,0.055v-0.166c0.111-0.055,0.193-0.082,0.249-0.082
		c0.028-0.056,0.028-0.084,0.056-0.111C17.673,38.051,17.756,37.802,17.839,37.581L17.839,37.581z M17.839,41.67v0.166
		c-0.083,0-0.166,0-0.221,0c-0.084,0-0.166,0.027-0.277,0.027v-0.221c0.056,0.027,0.139,0.027,0.193,0.027H17.839L17.839,41.67z
		 M17.341,32.885V32.69c0.056-0.055,0.111-0.083,0.139-0.11c0.139-0.11-0.083-0.11-0.083-0.11l-0.056,0.027v-0.165l0.028-0.028
		c0.083-0.027,0.193,0.028,0.249,0.139c0.082,0.11,0.027,0.165,0,0.193C17.59,32.663,17.452,32.773,17.341,32.885z M17.341,41.117
		c-0.138,0.027-0.275,0.056-0.414,0.083v0.166c0.083-0.056,0.166-0.11,0.249-0.11h0.165V41.117L17.341,41.117z M16.927,40.924
		c0.139-0.027,0.305-0.055,0.414-0.083v-0.165c-0.082,0-0.165,0.027-0.248,0.027c-0.055,0.027-0.11,0.027-0.166,0.027V40.924
		L16.927,40.924z M16.927,40.482c0.111-0.028,0.276-0.111,0.414-0.166v-0.249c-0.165-0.083-0.303-0.165-0.358-0.165
		c-0.028,0-0.028,0-0.056-0.028v0.193c0.139,0.056,0.166,0.166,0.111,0.193c-0.028,0.028-0.056,0.056-0.111,0.056V40.482
		L16.927,40.482z M17.341,29.32h-0.414v0.166h0.414V29.32L17.341,29.32z M16.927,42.389c0.056,0,0.139,0,0.166,0h0.027h0.221v-0.166
		H17.12c-0.055,0-0.11,0-0.193,0V42.389L16.927,42.389z M17.341,29.79v0.11c-0.027,0-0.082,0-0.138,0
		c-0.083,0-0.193,0.027-0.276,0.055V29.79H17.341L17.341,29.79z M17.341,30.232v0.359c-0.027-0.056-0.055-0.084-0.082-0.084
		c-0.083,0-0.083,0.222-0.083,0.332c0,0.083,0.083,0.221,0.165,0.276v0.47h-0.138c-0.11,0-0.138,0.027-0.138,0.11
		s0.082,0.138,0.138,0.138h0.138v0.193h-0.165l0.027,0.387c0,0,0.083-0.055,0.138-0.082v0.165l-0.414,0.304V30.37
		c0.056,0.056,0.139,0.083,0.166,0.083c0.083,0,0.11-0.083,0.11-0.11c0-0.056-0.083-0.166-0.193-0.11c0,0,0.056-0.111,0.138-0.111
		C17.203,30.121,17.286,30.149,17.341,30.232L17.341,30.232z M17.341,32.69c-0.082,0.056-0.221,0.166-0.414,0.305v2.763
		c0.056,0.055,0.083,0.082,0.083,0.11c0.056,0.056,0,0.056-0.083,0.056v0.138l0.414-0.028v-0.138h-0.193V33.05l0.193-0.165V32.69
		L17.341,32.69z M17.341,36.311v0.165l-0.414,0.028v-0.166L17.341,36.311L17.341,36.311z M17.341,37.194v0.193
		c-0.138,0.056-0.275,0.11-0.414,0.165v-0.193C17.065,37.305,17.203,37.25,17.341,37.194L17.341,37.194z M17.341,38.299v0.166
		c-0.055,0.027-0.138,0.056-0.221,0.083c-0.027,0.11-0.11,0.387-0.193,0.718V38.41C17.093,38.382,17.231,38.327,17.341,38.299
		L17.341,38.299z M17.341,41.643v0.221c-0.165,0-0.303,0.027-0.387,0.027h-0.027v-0.359c0.056,0,0.111,0,0.139,0
		c0.11-0.027,0.138,0,0.166,0.056C17.259,41.643,17.286,41.643,17.341,41.643z M16.927,41.2c-0.027,0-0.083,0-0.11,0.027v0.249
		c0-0.027,0-0.027,0-0.027c0.056-0.028,0.083-0.056,0.11-0.083V41.2L16.927,41.2z M16.816,40.951
		c0.027-0.027,0.083-0.027,0.11-0.027V40.73c-0.027,0-0.083,0.027-0.11,0.027V40.951L16.816,40.951z M16.816,40.537l0.11-0.055
		v-0.166c-0.027,0.027-0.083,0.027-0.11,0V40.537L16.816,40.537z M16.927,29.32h-0.055c-0.028,0-0.056,0-0.056,0v0.746
		c0.027-0.056,0.056-0.083,0.11-0.111V29.79h-0.083l0.028-0.304h0.055V29.32L16.927,29.32z M16.816,42.36
		c0.027,0.028,0.083,0.028,0.11,0.028v-0.166c-0.055-0.028-0.083-0.028-0.11-0.083V42.36L16.816,42.36z M16.927,30.37v2.431
		l-0.11,0.084v-2.652C16.844,30.287,16.872,30.343,16.927,30.37L16.927,30.37z M16.927,32.995v2.763
		c-0.027-0.056-0.083-0.166-0.11-0.276v-2.017c0.027-0.084,0.056-0.111,0.056-0.139s-0.028-0.055-0.056-0.055v-0.193L16.927,32.995
		L16.927,32.995z M16.927,35.924v0.138l-0.11,0.027v-0.165C16.872,35.924,16.899,35.924,16.927,35.924L16.927,35.924L16.927,35.924z
		 M16.927,36.338v0.166l-0.11,0.027v-0.166L16.927,36.338L16.927,36.338z M16.927,37.359v0.193l-0.11,0.056v-0.193L16.927,37.359
		L16.927,37.359z M16.927,38.41v0.855c-0.027,0.166-0.083,0.359-0.11,0.525v-0.746c0.027-0.193,0.083-0.331,0.11-0.441l-0.11,0.027
		v-0.193L16.927,38.41L16.927,38.41z M16.927,39.874v0.193l0,0c-0.027,0-0.055-0.027-0.11-0.027v-0.193
		C16.872,39.847,16.899,39.874,16.927,39.874L16.927,39.874z M16.927,41.531v0.359c-0.055,0.027-0.11,0.027-0.11,0.083v-0.221l0,0
		c0-0.028,0-0.056,0-0.083v-0.166C16.816,41.504,16.872,41.531,16.927,41.531z M16.816,41.228c-0.056,0-0.11,0.028-0.166,0.028
		v0.331c0.083,0.027,0.138,0.056,0.166,0.083v-0.166c-0.028,0-0.028-0.027,0-0.027V41.228L16.816,41.228z M16.65,40.979
		c0.056,0,0.11-0.027,0.166-0.027v-0.193c-0.083,0-0.138-0.027-0.138-0.055c-0.028-0.056-0.028-0.111,0.082-0.139
		c0,0,0.027,0,0.056-0.027v-0.221c-0.028,0-0.028,0-0.028,0c-0.027,0-0.082-0.027-0.138-0.056V40.979L16.65,40.979z M16.816,29.32
		c-0.083,0.027-0.11,0.083-0.138,0.166v0.248l-0.028-0.027v2.846c0.056,0,0.083,0.027,0.083,0.083c0,0.027-0.027,0.083-0.083,0.083
		v0.276l0.166-0.11v-2.652c-0.028-0.028-0.028-0.056-0.028-0.083c0-0.028,0-0.056,0.028-0.083V29.32L16.816,29.32z M16.65,42.36
		l0.083-0.027c0.027,0,0.055,0.027,0.083,0.027V42.14c-0.028,0-0.028-0.028-0.028-0.056c0-0.055,0-0.083,0.028-0.11v-0.221
		c-0.028,0.055-0.083,0.083-0.166,0.083V42.36L16.65,42.36z M16.816,33.078v0.193c-0.056,0.027-0.11,0.055-0.11,0.055l-0.056,0.027
		v-0.138L16.816,33.078L16.816,33.078z M16.816,33.465v2.017c-0.083-0.222-0.166-0.525-0.166-0.967
		C16.65,33.934,16.761,33.63,16.816,33.465L16.816,33.465z M16.816,35.924v0.165H16.65v-0.165H16.816L16.816,35.924z M16.816,36.365
		v0.166H16.65v-0.166H16.816L16.816,36.365z M16.816,37.415v0.193l-0.166,0.056v-0.193C16.706,37.471,16.761,37.443,16.816,37.415
		L16.816,37.415z M16.816,38.438v0.193c-0.056,0.027-0.11,0.027-0.166,0.055v-0.193C16.706,38.465,16.761,38.465,16.816,38.438
		L16.816,38.438z M16.816,39.045v0.746l-0.028,0.056h0.028v0.193c-0.056-0.028-0.11-0.028-0.166-0.056v-0.304
		C16.706,39.459,16.761,39.238,16.816,39.045z M16.65,41.256c-0.027,0.027-0.056,0.027-0.056,0.027
		c-0.138,0.055-0.221,0.083-0.303,0.11v0.11c0.109,0.027,0.248,0.056,0.358,0.083V41.256L16.65,41.256z M16.292,41.09
		c0.082-0.027,0.221-0.083,0.358-0.111v-0.718c-0.083-0.027-0.221-0.083-0.358-0.11v0.166c0.193,0.055,0.303,0.11,0.248,0.193
		c-0.055,0.11-0.139,0.138-0.248,0.082v0.193c0.055,0.028,0.109,0.056,0.109,0.111c0,0.055-0.055,0.082-0.109,0.082V41.09
		L16.292,41.09z M16.65,29.707c-0.11-0.056-0.249-0.11-0.358-0.193v0.912c0.055,0,0.109,0.055,0.109,0.138
		c0,0.056-0.055,0.11-0.109,0.11v2.598l0.358-0.276v-0.276l0,0c-0.056,0-0.083-0.056-0.083-0.083c0-0.056,0.027-0.083,0.083-0.083
		l0,0V29.707L16.65,29.707z M16.292,42.554c0.109-0.056,0.248-0.11,0.358-0.193v-0.524c-0.083,0.027-0.221,0-0.358,0V42.554
		L16.292,42.554z M16.65,33.216v0.138l-0.358,0.276v-0.138L16.65,33.216L16.65,33.216z M16.65,35.924v0.165
		c-0.165,0.028-0.276,0.028-0.276,0.028c-0.027,0-0.055,0-0.082,0.027v-0.193L16.65,35.924L16.65,35.924z M16.65,36.365v0.166
		c-0.165,0.027-0.304,0.027-0.358,0.027v-0.166C16.319,36.393,16.457,36.365,16.65,36.365L16.65,36.365z M16.65,37.471v0.193
		c-0.11,0.055-0.249,0.082-0.358,0.138v-0.193C16.401,37.581,16.54,37.525,16.65,37.471L16.65,37.471z M16.65,38.492v0.193
		c-0.11,0.028-0.249,0.056-0.358,0.083v-0.192C16.401,38.548,16.54,38.521,16.65,38.492L16.65,38.492z M16.65,39.681v0.304
		c-0.11-0.027-0.221-0.055-0.358-0.082v-0.222c0.109,0.027,0.248,0.083,0.331,0.11L16.65,39.681z M16.292,41.394
		c-0.084,0-0.139,0-0.166,0s-0.056,0-0.056,0v0.083c0.056,0.027,0.138,0.027,0.193,0.027h0.028V41.394L16.292,41.394z M16.07,41.173
		c0.056-0.028,0.11-0.056,0.222-0.083v-0.111c-0.028,0-0.056,0-0.084-0.027c-0.055,0-0.109,0-0.138,0.027V41.173L16.07,41.173z
		 M16.292,29.514c-0.084-0.027-0.166-0.055-0.222-0.083v1.657c0.028,0,0.083,0.028,0.083,0.084c0,0.055-0.055,0.082-0.083,0.082
		v0.166h0.083v1.547H16.07v0.166h0.083v0.111l-0.083,0.082v0.111l0.222-0.166v-2.598l0,0c-0.084,0-0.139-0.055-0.139-0.11
		c0-0.083,0.055-0.138,0.139-0.138l0,0V29.514L16.292,29.514z M16.07,42.664c0.056-0.027,0.138-0.082,0.222-0.11v-0.718
		l-0.193-0.028H16.07V42.664L16.07,42.664z M16.292,33.492v0.138l-0.222,0.166V33.63L16.292,33.492L16.292,33.492z M16.292,35.951
		v0.193c-0.084,0.027-0.139,0.055-0.193,0.11c-0.028,0.027-0.028,0.027-0.028,0.056v-0.249h0.028c0.027-0.083,0.082-0.11,0.082-0.11
		H16.292L16.292,35.951z M16.292,36.393v0.166c-0.028,0-0.028,0-0.028,0c-0.083,0.027-0.083,0.139-0.193,0.248v0.028v-0.497
		C16.07,36.365,16.181,36.393,16.292,36.393L16.292,36.393L16.292,36.393z M16.292,37.608v0.193
		c-0.084,0.028-0.166,0.056-0.222,0.083v-0.193C16.126,37.664,16.208,37.637,16.292,37.608L16.292,37.608z M16.292,38.576v0.192
		c-0.084,0-0.166,0.028-0.222,0.056v-0.193C16.126,38.631,16.208,38.604,16.292,38.576L16.292,38.576z M16.292,39.681v0.222
		c-0.084-0.028-0.166-0.028-0.222-0.056v-0.194c0,0,0.028,0,0.056,0C16.181,39.681,16.236,39.681,16.292,39.681L16.292,39.681z
		 M16.292,40.15v0.166h-0.028c-0.027,0-0.11-0.027-0.193-0.027v-0.193C16.126,40.096,16.208,40.123,16.292,40.15L16.292,40.15z
		 M16.292,40.592v0.193c-0.084-0.027-0.139-0.055-0.222-0.082v-0.166c0.056,0,0.083,0.027,0.138,0.027
		C16.236,40.592,16.264,40.592,16.292,40.592z M16.07,41.394c-0.056,0-0.11-0.027-0.138-0.056v0.139h0.138V41.394L16.07,41.394z
		 M15.933,41.256c0-0.028,0.027-0.028,0.055-0.056s0.027-0.027,0.083-0.027v-0.194c-0.056,0-0.11,0.028-0.138,0.028V41.256
		L15.933,41.256z M16.07,29.431c-0.056-0.027-0.11-0.056-0.138-0.056v2.294c0.027,0,0.027-0.028,0.082-0.028V31.42h0.056v-0.166l0,0
		c-0.056,0-0.11-0.027-0.11-0.082c0-0.056,0.055-0.084,0.11-0.084l0,0V29.431L16.07,29.431z M15.933,42.72
		c0.027-0.028,0.082-0.056,0.138-0.056v-0.856c-0.056,0-0.11-0.027-0.138-0.027V42.72L15.933,42.72z M16.07,32.967v0.166h-0.138
		v-0.166H16.07L16.07,32.967z M16.07,33.326v0.111l-0.138,0.109v-0.138L16.07,33.326L16.07,33.326z M16.07,33.63v0.166l-0.138,0.11
		V33.74L16.07,33.63L16.07,33.63z M16.07,36.062v0.249c-0.027,0-0.027,0.027,0,0.027v0.497c-0.056,0.027-0.083,0.083-0.138,0.138
		v-0.884L16.07,36.062L16.07,36.062z M16.07,37.691v0.193l-0.138,0.027v-0.166L16.07,37.691L16.07,37.691z M16.07,38.631v0.193
		l-0.138,0.027v-0.193L16.07,38.631L16.07,38.631z M16.07,39.652v0.194c-0.056,0-0.11,0-0.138-0.028v-0.193
		C15.96,39.625,16.015,39.652,16.07,39.652L16.07,39.652z M16.07,40.096v0.193c-0.056,0-0.11-0.028-0.138-0.028v-0.193
		C15.96,40.067,16.015,40.096,16.07,40.096L16.07,40.096z M16.07,40.537v0.166l0,0l-0.138-0.027V40.51
		C15.96,40.51,16.015,40.537,16.07,40.537z M15.933,41.338c-0.027-0.027-0.027-0.055,0-0.082v-0.249
		c-0.027,0-0.027,0.027-0.056,0.027c-0.027,0-0.083,0.028-0.11,0v0.415l0.166,0.027V41.338L15.933,41.338z M15.933,29.375
		c-0.056-0.027-0.111-0.055-0.166-0.082v2.376c0.027,0,0.083,0,0.166,0V29.375L15.933,29.375z M15.767,42.775
		c0.055-0.028,0.11-0.028,0.166-0.056V41.78c-0.056,0-0.111,0-0.166,0V42.775L15.767,42.775z M15.933,32.967v0.166h-0.166v-1.188
		h0.11v1.021H15.933L15.933,32.967z M15.933,33.409v0.138l-0.166,0.111v-0.221h0.139L15.933,33.409L15.933,33.409z M15.933,33.74
		v0.166l-0.166,0.11v-0.138L15.933,33.74L15.933,33.74z M15.933,36.089v0.884c-0.056,0.028-0.111,0.084-0.166,0.139v-0.276
		c0,0,0.027,0,0.027-0.028c0.056-0.027,0.083-0.055-0.027-0.109v-0.028v-0.552L15.933,36.089L15.933,36.089z M15.933,37.746v0.166
		c-0.056,0.027-0.111,0.027-0.166,0.056v-0.193C15.821,37.774,15.877,37.746,15.933,37.746L15.933,37.746z M15.933,38.658v0.193
		l-0.166,0.027v-0.165C15.821,38.686,15.877,38.686,15.933,38.658L15.933,38.658z M15.933,39.625v0.193c-0.056,0-0.111,0-0.166,0
		v-0.193C15.821,39.625,15.877,39.625,15.933,39.625L15.933,39.625z M15.933,40.067v0.193c-0.056,0-0.111,0-0.166,0v-0.193h0.027
		C15.85,40.067,15.877,40.067,15.933,40.067L15.933,40.067z M15.933,40.51v0.166c-0.056,0-0.111,0-0.166-0.028v-0.165
		C15.821,40.482,15.877,40.51,15.933,40.51z M15.767,29.293c-0.166-0.056-0.332-0.111-0.498-0.139v0.47
		c0.028,0,0.056-0.027,0.084-0.027c0.082,0,0.138,0.083,0.138,0.138c0,0.083-0.056,0.139-0.138,0.139c-0.028,0-0.056,0-0.084,0
		v0.994c0.056,0.027,0.084,0.083,0.084,0.139c0,0.055-0.028,0.11-0.084,0.138v0.746c0.166-0.027,0.222-0.138,0.498-0.221V29.293
		L15.767,29.293z M15.269,42.94c0.166-0.056,0.332-0.11,0.498-0.165V41.78c-0.166-0.027-0.332-0.027-0.498-0.027v0.248
		c0.028,0.028,0.056,0.056,0.056,0.083s-0.027,0.056-0.056,0.056V42.94L15.269,42.94z M15.767,31.945v1.188h-0.083
		c-0.027,0.166,0.028,0.305,0.028,0.305h0.055v0.221l-0.498,0.358v-1.16c0.084-0.027,0.139-0.083,0.139-0.138
		c0-0.111-0.11-0.083-0.139-0.083v-0.553c0.277,0,0.388-0.138,0.443-0.138H15.767L15.767,31.945z M15.767,33.879l-0.498,0.332v0.165
		l0.498-0.359V33.879L15.767,33.879z M15.767,36.117v0.552c-0.083-0.027-0.304-0.249-0.498-0.58V35.73
		c0.139,0.248,0.277,0.414,0.277,0.414L15.767,36.117L15.767,36.117z M15.767,36.835v0.276c-0.139,0.083-0.276,0.166-0.498,0.276
		v-0.636c0.056,0,0.084,0.027,0.111,0.027C15.518,36.807,15.684,36.835,15.767,36.835L15.767,36.835z M15.767,37.774v0.193
		c-0.166,0.056-0.332,0.083-0.498,0.138v-0.193C15.435,37.885,15.601,37.83,15.767,37.774L15.767,37.774z M15.767,38.714v0.165
		c-0.166,0.028-0.332,0.056-0.498,0.083v-0.165C15.435,38.769,15.601,38.741,15.767,38.714L15.767,38.714z M15.767,39.625v0.193
		c-0.166-0.027-0.332-0.055-0.498-0.055V39.57C15.435,39.598,15.601,39.598,15.767,39.625L15.767,39.625z M15.767,40.067v0.193
		c-0.166-0.027-0.304-0.027-0.498-0.027V40.04C15.463,40.04,15.628,40.04,15.767,40.067L15.767,40.067z M15.767,40.482v0.165
		c-0.166-0.027-0.332-0.027-0.498-0.056v-0.138C15.435,40.454,15.601,40.454,15.767,40.482L15.767,40.482z M15.767,41.034v0.415
		c-0.166,0-0.332,0-0.498-0.028v-0.165c0.084,0,0.166,0,0.194,0c0.083-0.028,0.11-0.028,0.083-0.083
		c-0.028-0.056-0.111-0.083-0.277-0.139v-0.138c0.166,0.027,0.277,0.055,0.359,0.082C15.684,41.007,15.712,41.034,15.767,41.034z
		 M15.269,29.154c-0.055-0.027-0.109-0.027-0.165-0.055v1.077c0.056,0,0.11,0,0.11,0.056c0,0.082,0,0.138-0.11,0.166v0.441
		c0.027,0,0.056,0,0.083,0s0.055,0,0.082,0.027v-0.994c-0.027-0.027-0.055-0.083-0.055-0.139c0-0.055,0.027-0.083,0.055-0.11V29.154
		L15.269,29.154z M15.104,42.996c0.056-0.027,0.11-0.056,0.165-0.056V42.14c0,0.027-0.027,0.027-0.055,0.027
		s-0.083-0.056-0.083-0.083c0-0.055,0.056-0.11,0.083-0.11s0.055,0.027,0.055,0.027v-0.248c-0.055,0-0.109,0-0.165,0V42.996
		L15.104,42.996z M15.269,31.144v0.746c0,0-0.027,0-0.055,0c0,0-0.055,0-0.11,0v-0.746c0.027,0.028,0.056,0.028,0.083,0.028
		S15.241,31.172,15.269,31.144L15.269,31.144z M15.269,32.083v0.553l0,0l-0.165,0.055v-0.635
		C15.159,32.083,15.214,32.083,15.269,32.083L15.269,32.083L15.269,32.083z M15.269,32.856v1.16l-0.165,0.11v-0.746
		c0.083-0.165,0.138-0.248,0.138-0.303c0-0.111-0.055-0.083-0.138-0.056v-0.11c0.056,0,0.083,0,0.083-0.027
		C15.214,32.885,15.241,32.885,15.269,32.856L15.269,32.856z M15.269,34.211v0.165l-0.165,0.139v-0.166L15.269,34.211L15.269,34.211
		z M15.269,35.73v0.358c-0.055-0.083-0.109-0.165-0.165-0.276v-0.497C15.159,35.453,15.214,35.592,15.269,35.73L15.269,35.73z
		 M15.269,36.752v0.636c-0.055,0-0.082,0.027-0.165,0.056v-0.719C15.187,36.725,15.241,36.725,15.269,36.752L15.269,36.752z
		 M15.269,37.912v0.193c-0.055,0-0.109,0.027-0.165,0.027v-0.165C15.159,37.939,15.214,37.939,15.269,37.912L15.269,37.912z
		 M15.269,38.797v0.165l-0.165,0.028v-0.166L15.269,38.797L15.269,38.797z M15.269,39.57v0.193c-0.055,0-0.109,0-0.165,0V39.57
		C15.159,39.57,15.214,39.57,15.269,39.57L15.269,39.57z M15.269,40.04v0.193c-0.055,0-0.109,0-0.165,0v-0.166
		C15.159,40.067,15.214,40.04,15.269,40.04L15.269,40.04z M15.269,40.454v0.138c-0.027,0-0.055,0-0.082,0s-0.056,0-0.083,0v-0.138
		C15.159,40.454,15.214,40.454,15.269,40.454L15.269,40.454z M15.269,40.896v0.138h-0.027c-0.027-0.027-0.082-0.027-0.138-0.027
		v-0.138C15.159,40.869,15.214,40.869,15.269,40.896L15.269,40.896z M15.269,41.256v0.165c-0.055,0-0.109,0-0.165,0v-0.165
		C15.159,41.256,15.214,41.256,15.269,41.256z M15.104,29.1c-0.083-0.027-0.166-0.056-0.276-0.056v1.188l0.221-0.056
		c0,0,0.027,0,0.056,0V29.1L15.104,29.1z M14.827,43.051c0.11-0.027,0.193-0.055,0.276-0.055v-1.243
		c-0.083-0.028-0.193-0.028-0.276,0v0.607c0.055,0,0.11,0.028,0.11,0.083s-0.056,0.11-0.11,0.11V43.051L14.827,43.051z
		 M15.104,30.398v0.441c-0.056,0.027-0.083,0.083-0.083,0.166c0,0.055,0.027,0.11,0.083,0.138v0.746
		c-0.083,0-0.222-0.027-0.276-0.027V30.48l0.221-0.055C15.075,30.426,15.104,30.398,15.104,30.398L15.104,30.398z M15.104,32.056
		c-0.11-0.028-0.222-0.139-0.276-0.166v0.911l0.276-0.11V32.056L15.104,32.056z M15.104,32.912v0.11
		c-0.028,0-0.028,0.027-0.028,0.027l-0.248,0.083v-0.11C14.966,32.995,15.048,32.939,15.104,32.912L15.104,32.912z M15.104,33.381
		v0.746l-0.028,0.028v0.221l0.028-0.027v0.166l0,0c-0.083,0.276-0.056,0.552,0,0.801v0.497c-0.11-0.276-0.222-0.58-0.222-0.911
		C14.882,34.045,15.021,33.63,15.104,33.381L15.104,33.381z M15.104,36.725v0.719c-0.083,0.027-0.166,0.082-0.276,0.109v-0.884
		C14.938,36.669,15.048,36.697,15.104,36.725L15.104,36.725z M15.104,37.968v0.165c-0.083,0.028-0.166,0.056-0.276,0.084v-0.193
		C14.938,37.995,15.021,37.995,15.104,37.968L15.104,37.968z M15.104,38.824v0.166c-0.083,0.027-0.166,0.027-0.276,0.055v-0.193
		C14.938,38.852,15.021,38.824,15.104,38.824L15.104,38.824z M15.104,39.57v0.193h-0.028c-0.082,0-0.165,0-0.248,0V39.57
		C14.91,39.57,15.021,39.57,15.104,39.57L15.104,39.57z M15.104,40.067v0.166h-0.056c-0.082,0-0.138,0-0.221,0v-0.166
		C14.938,40.067,15.021,40.067,15.104,40.067L15.104,40.067z M15.104,40.454v0.138c-0.083,0.028-0.166,0.028-0.276,0.028v-0.166
		c0.083,0,0.166,0,0.221,0C15.075,40.454,15.104,40.454,15.104,40.454L15.104,40.454z M15.104,40.869v0.138
		c-0.083-0.028-0.193-0.028-0.276-0.028v-0.109c0.027,0,0.083,0,0.139,0C15.021,40.869,15.075,40.869,15.104,40.869L15.104,40.869z
		 M15.104,41.256v0.165l0,0c-0.083,0-0.166,0-0.276,0v-0.165c0.027,0,0.055,0,0.083,0C14.966,41.256,15.048,41.256,15.104,41.256z
		 M14.827,29.044c-0.055-0.027-0.083-0.027-0.139-0.027v0.414l0,0c0.084,0,0.139,0.083,0.139,0.138c0,0.083-0.055,0.139-0.139,0.139
		l0,0v0.58l0.139-0.055V29.044L14.827,29.044z M14.688,43.078c0.056,0,0.084-0.027,0.139-0.027v-0.497l0,0
		c-0.055,0-0.11-0.056-0.11-0.11s0.056-0.083,0.11-0.083l0,0v-0.607c-0.055,0-0.083,0-0.139,0V43.078L14.688,43.078z M14.827,30.48
		v1.382H14.8c0,0,0,0,0.027,0.027v0.911l-0.139,0.056v-2.349L14.827,30.48L14.827,30.48z M14.827,33.022v0.11l-0.139,0.056v-0.083
		L14.827,33.022L14.827,33.022z M14.827,36.669v0.884c-0.027,0-0.083,0.028-0.11,0.028h-0.028v-0.939
		C14.744,36.642,14.8,36.669,14.827,36.669L14.827,36.669z M14.827,38.023v0.193c-0.055,0-0.083,0-0.139,0.027v-0.193
		C14.744,38.051,14.772,38.051,14.827,38.023L14.827,38.023z M14.827,38.852v0.193h-0.139v-0.166L14.827,38.852L14.827,38.852z
		 M14.827,39.57v0.193c-0.055,0-0.083,0-0.139,0.027V39.57C14.744,39.57,14.772,39.57,14.827,39.57L14.827,39.57z M14.827,40.067
		v0.166c-0.055,0-0.083,0-0.139,0.027v-0.193C14.744,40.067,14.772,40.067,14.827,40.067L14.827,40.067z M14.827,40.454v0.166
		c-0.055,0.027-0.083,0.027-0.139,0.027v-0.165C14.744,40.482,14.772,40.482,14.827,40.454L14.827,40.454z M14.827,40.869v0.109
		c-0.055,0-0.11,0.028-0.139,0.056l0,0v-0.165C14.717,40.869,14.772,40.869,14.827,40.869L14.827,40.869z M14.827,41.256v0.165
		c-0.027,0-0.083,0-0.139,0V41.2C14.717,41.228,14.772,41.256,14.827,41.256z M14.688,29.017c-0.138-0.056-0.275-0.056-0.441-0.083
		v1.465l0.441-0.111v-0.58c-0.082,0-0.138-0.056-0.138-0.139c0-0.055,0.056-0.138,0.138-0.138V29.017L14.688,29.017z M14.247,43.162
		c0.166-0.028,0.304-0.056,0.441-0.084v-1.325c-0.082,0-0.165,0-0.221,0c-0.055,0.027-0.138,0.027-0.221,0.027V43.162L14.247,43.162
		z M14.688,30.508v2.349l-0.441,0.193V32.69c0.166,0.028,0.276,0.028,0.332,0.056c0.138,0.027,0.138-0.11,0.055-0.193
		c-0.083-0.056-0.359-0.442-0.359-0.856c0-0.415,0.221-0.829,0.332-0.967c0.11-0.138-0.027-0.138-0.139-0.083
		c-0.027,0-0.11,0.027-0.221,0.055v-0.055L14.688,30.508L14.688,30.508z M14.688,33.105v0.083l-0.441,0.165v-0.082L14.688,33.105
		L14.688,33.105z M14.688,36.642v0.939c-0.138,0.027-0.275,0.083-0.441,0.11v-0.47c0.083,0,0.166-0.056,0.166-0.138
		c0-0.083-0.083-0.139-0.166-0.139v-0.332C14.413,36.613,14.551,36.642,14.688,36.642L14.688,36.642z M14.688,38.051v0.193
		c-0.138,0.027-0.275,0.055-0.441,0.083v-0.194C14.413,38.105,14.551,38.078,14.688,38.051L14.688,38.051z M14.688,38.879v0.166
		c-0.138,0.027-0.275,0.056-0.441,0.056v-0.166C14.413,38.907,14.551,38.907,14.688,38.879L14.688,38.879z M14.688,39.57v0.221
		c-0.138,0-0.303,0-0.441,0.027v-0.193l0.11-0.027C14.44,39.57,14.551,39.57,14.688,39.57L14.688,39.57z M14.688,40.067v0.193
		c-0.138,0-0.303,0.028-0.441,0.083V40.15C14.386,40.123,14.551,40.096,14.688,40.067L14.688,40.067z M14.688,40.482v0.165
		c-0.165,0.028-0.331,0.056-0.441,0.083v-0.166C14.386,40.537,14.551,40.51,14.688,40.482L14.688,40.482z M14.688,40.869v0.165
		c-0.055,0.083-0.055,0.139,0,0.166v0.221c-0.138,0.028-0.275,0.028-0.441,0.056v-0.166c0.083,0,0.221-0.027,0.248-0.055
		c0.028-0.056-0.055-0.111-0.248-0.166v-0.139c0.055,0.027,0.139,0.027,0.166,0.027c0.055,0,0.082-0.027,0.166-0.055
		C14.606,40.896,14.634,40.896,14.688,40.869z M14.247,28.934c-0.249-0.027-0.498-0.055-0.746-0.055v0.828l0,0v-0.166
		c0-0.11-0.055-0.166,0.083-0.221c0.11-0.055,0.138,0.055,0.138,0.055v1.078l-0.221,0.055v0.111l0.746-0.221V28.934L14.247,28.934z
		 M13.501,43.217c0.248,0,0.497-0.027,0.746-0.055V41.78c-0.221,0.056-0.498,0.083-0.746,0.138v0.332
		c0.055,0.027,0.11,0.083,0.11,0.166c0,0.055-0.056,0.138-0.11,0.138V43.217L13.501,43.217z M14.247,30.646v0.055
		c-0.166,0.056-0.47,0.166-0.746,0.249v-0.11L14.247,30.646L14.247,30.646z M14.247,32.69v0.359l-0.746,0.304v-0.165l0.139-0.056
		c0,0-0.028-0.083-0.028-0.221c0-0.083-0.056-0.083-0.11-0.056V32.69c0,0,0.027,0,0.055,0C13.722,32.69,14.026,32.69,14.247,32.69
		L14.247,32.69z M14.247,33.271l-0.746,0.303v0.084l0.746-0.305V33.271L14.247,33.271z M14.247,36.613v0.332l0,0
		c-0.055,0-0.139,0.056-0.139,0.139c0,0.082,0.084,0.138,0.139,0.138l0,0v0.47c-0.221,0.027-0.47,0.083-0.746,0.11v-1.133
		C13.749,36.642,14.026,36.613,14.247,36.613L14.247,36.613z M14.247,38.133v0.194c-0.221,0.027-0.498,0.055-0.746,0.083v-0.166
		C13.749,38.217,14.026,38.188,14.247,38.133L14.247,38.133z M14.247,38.935v0.166c-0.249,0.027-0.498,0.027-0.746,0.055v-0.193
		C13.749,38.962,13.998,38.962,14.247,38.935L14.247,38.935z M14.247,39.625v0.193c-0.276,0.056-0.553,0.111-0.746,0.166v-0.193
		C13.722,39.736,13.998,39.681,14.247,39.625L14.247,39.625z M14.247,40.15v0.193c-0.305,0.055-0.553,0.139-0.607,0.166
		c-0.249,0.11-0.084,0.166,0.027,0.193c0.11,0.027,0.248-0.027,0.441-0.083c0.056-0.028,0.084-0.028,0.139-0.056v0.166H14.22
		c-0.139,0.055-0.027,0.11,0,0.166c0,0.027,0.027,0.055,0.027,0.055v0.139c-0.055-0.027-0.166-0.083-0.276-0.111
		c-0.11-0.055-0.276-0.109-0.47-0.165v-0.47c0.139-0.055,0.387-0.11,0.719-0.193H14.247L14.247,40.15z M14.247,41.311
		c0,0,0-0.027-0.027-0.027c-0.056-0.027-0.553-0.221-0.719-0.276v0.553c0.083,0,0.139-0.028,0.193-0.028
		c0.11-0.027,0.332-0.055,0.553-0.055V41.311z M13.501,28.879c-0.055,0-0.11,0-0.139,0h-0.055v0.772
		c0.11,0.028,0.166,0.056,0.193,0.056V28.879L13.501,28.879z M13.308,43.217h0.055c0.028,0,0.084,0,0.139,0v-0.663
		c-0.027,0.028-0.027,0.028-0.055,0.028c-0.056,0-0.111-0.028-0.139-0.084V43.217L13.308,43.217z M13.501,30.508v0.111l-0.193,0.027
		v-0.801c0.11,0.027,0.166,0.055,0.166,0.055v0.636L13.501,30.508L13.501,30.508z M13.501,30.84v0.11l-0.193,0.056v-0.111
		L13.501,30.84L13.501,30.84z M13.501,32.69v0.166c-0.027,0.028-0.083,0.056-0.083,0.083c-0.027,0.056-0.056,0.249-0.056,0.249
		v0.056l0.139-0.056v0.165l-0.193,0.084V32.69C13.362,32.69,13.446,32.69,13.501,32.69L13.501,32.69z M13.501,33.574v0.084
		l-0.193,0.082v-0.082L13.501,33.574L13.501,33.574z M13.501,36.669v1.133c-0.055,0-0.11,0-0.193,0.028v-0.277h0.139l0.027-0.855
		L13.501,36.669L13.501,36.669z M13.501,38.244v0.166c-0.055,0.027-0.11,0.027-0.193,0.027v-0.166
		C13.391,38.244,13.446,38.244,13.501,38.244L13.501,38.244z M13.501,38.962v0.193c-0.055,0-0.11,0-0.193,0v-0.193
		C13.391,38.962,13.446,38.962,13.501,38.962L13.501,38.962z M13.501,39.791v0.193c-0.083,0-0.139,0.027-0.193,0.027v-0.165
		C13.362,39.818,13.418,39.818,13.501,39.791L13.501,39.791z M13.501,40.344v0.47c-0.055-0.028-0.11-0.028-0.193-0.056v-0.331
		c0.027,0,0.027-0.028,0.055-0.028C13.391,40.398,13.446,40.371,13.501,40.344L13.501,40.344z M13.501,41.007v0.553
		c-0.055,0.027-0.11,0.027-0.193,0.055v-0.11c0.055-0.027,0.055-0.083,0.055-0.138c0-0.056-0.027-0.056-0.055-0.083v-0.305
		C13.391,40.979,13.474,41.007,13.501,41.007L13.501,41.007z M13.501,41.918v0.332c-0.027,0-0.027-0.027-0.055-0.027
		c-0.056,0-0.111,0.027-0.139,0.082v-0.331C13.362,41.946,13.446,41.946,13.501,41.918z M13.308,28.879c-0.055,0-0.11,0-0.166,0
		v0.718c0.056,0,0.111,0.027,0.166,0.055V28.879L13.308,28.879z M13.142,43.217c0.056,0,0.111,0,0.166,0v-0.719
		c-0.027-0.027-0.027-0.055-0.027-0.082c0-0.056,0-0.083,0.027-0.111v-0.331c-0.055,0-0.11,0.027-0.166,0.027V43.217L13.142,43.217z
		 M13.308,29.846v0.801l-0.166,0.055V29.79C13.197,29.817,13.28,29.846,13.308,29.846L13.308,29.846z M13.308,30.895v0.111
		l-0.166,0.055v-0.11L13.308,30.895L13.308,30.895z M13.308,32.69v0.747l-0.166,0.055v-0.387c0.056-0.027,0.056-0.056,0.056-0.11
		c0-0.056-0.028-0.056-0.056-0.056v-0.193C13.197,32.719,13.253,32.719,13.308,32.69L13.308,32.69z M13.308,33.658v0.082
		l-0.166,0.083v-0.138c0.027,0.027,0.056,0.027,0.056,0.027L13.308,33.658L13.308,33.658z M13.308,37.553v0.277
		c-0.055,0-0.11,0-0.166,0v-1.078h0.027v0.801H13.308L13.308,37.553z M13.308,38.271v0.166h-0.11l-0.056,0.027v-0.193h0.027
		C13.225,38.271,13.28,38.271,13.308,38.271L13.308,38.271z M13.308,38.962v0.193c-0.055,0-0.11,0-0.166,0v-0.193
		C13.197,38.962,13.253,38.962,13.308,38.962L13.308,38.962z M13.308,39.847v0.165c-0.083,0.028-0.139,0.056-0.166,0.056v-0.165
		c0.027,0,0.056-0.028,0.111-0.028L13.308,39.847L13.308,39.847z M13.308,40.427v0.331c-0.055,0-0.11-0.027-0.166-0.055v-0.305
		C13.225,40.454,13.253,40.454,13.308,40.427L13.308,40.427z M13.308,40.979v0.305c-0.027-0.027-0.11-0.027-0.166-0.027v-0.111
		c0.056-0.027,0.027-0.055,0-0.082v-0.139C13.197,40.924,13.253,40.951,13.308,40.979L13.308,40.979z M13.308,41.504v0.11
		c-0.055,0-0.11,0.028-0.166,0.028v-0.111h0.027C13.225,41.531,13.28,41.504,13.308,41.504z M13.142,28.879h-0.055v0.689
		l0.055,0.028V28.879L13.142,28.879z M13.087,43.217h0.055v-1.216l-0.055,0.028V43.217L13.087,43.217z M13.142,29.79v0.911
		l-0.055,0.028V29.79H13.142L13.142,29.79z M13.142,30.95v0.11h-0.055v-0.11H13.142L13.142,30.95z M13.142,32.746v0.193
		c-0.027,0-0.027,0.027-0.027,0.027h-0.027v-0.221H13.142L13.142,32.746z M13.142,33.105v0.387l-0.027,0.027
		c-0.027,0-0.027,0.027-0.027,0.055v-0.221c0-0.027,0-0.027,0-0.055v-0.027v-0.139C13.087,33.133,13.114,33.105,13.142,33.105
		L13.142,33.105z M13.142,33.686v0.138h-0.055v-0.165C13.087,33.686,13.114,33.686,13.142,33.686L13.142,33.686z M13.142,36.752
		v1.078h-0.055v-1.078H13.142L13.142,36.752z M13.142,38.271v0.193h-0.055v-0.193H13.142L13.142,38.271z M13.142,38.962v0.193
		h-0.055v-0.193H13.142L13.142,38.962z M13.142,39.902v0.165l-0.055,0.028l0,0v-0.193C13.087,39.902,13.114,39.902,13.142,39.902
		L13.142,39.902z M13.142,40.398v0.305h-0.055v-0.359l0.027,0.027L13.142,40.398L13.142,40.398z M13.142,40.924v0.139
		c-0.027,0-0.055-0.028-0.055-0.028v-0.138L13.142,40.924L13.142,40.924z M13.142,41.145v0.111h-0.055v-0.111
		C13.087,41.145,13.114,41.145,13.142,41.145L13.142,41.145z M13.142,41.531v0.111l-0.055,0.027v-0.139
		C13.087,41.531,13.114,41.531,13.142,41.531z M13.087,28.879c-0.056,0-0.111,0-0.166,0v0.662c0.055,0,0.11,0.027,0.166,0.027
		V28.879L13.087,28.879z M12.921,43.189c0.055,0,0.11,0.027,0.166,0.027v-1.188c-0.056,0-0.111,0.027-0.139,0.027h-0.027V43.189
		L12.921,43.189z M13.087,29.79v0.939l-0.166,0.027v-0.995C12.976,29.79,13.031,29.79,13.087,29.79L13.087,29.79z M13.087,30.95
		v0.11l-0.166,0.056v-0.11L13.087,30.95L13.087,30.95z M13.087,32.746v0.221l-0.166,0.056v-0.222
		C12.976,32.801,13.031,32.773,13.087,32.746L13.087,32.746z M13.087,33.133v0.139c-0.027-0.027-0.111-0.027-0.166,0v-0.083
		l0.11-0.056H13.087L13.087,33.133z M13.087,33.354v0.221c-0.027,0.028-0.027,0.056,0,0.084v0.165l-0.111,0.056
		c-0.027,0.027-0.027,0.082-0.055,0.11v-0.331C13.004,33.52,13.06,33.409,13.087,33.354L13.087,33.354z M13.087,36.752v1.078
		l-0.166,0.027v-0.359c0.027,0.027,0.027,0.027,0.055,0.027c0.084,0,0.111-0.11,0.028-0.193c0-0.027-0.056-0.082-0.083-0.138v-0.415
		L13.087,36.752L13.087,36.752z M13.087,38.271v0.193c-0.056,0-0.111,0-0.166,0v-0.166C12.976,38.271,13.031,38.271,13.087,38.271
		L13.087,38.271z M13.087,38.962v0.193c-0.056,0-0.111,0-0.166,0v-0.193C12.976,38.962,13.031,38.962,13.087,38.962L13.087,38.962z
		 M13.087,39.902v0.193c-0.083,0.027-0.139,0.055-0.166,0.082v-0.359c0.027,0.028,0.055,0.028,0.055,0.056
		C13.004,39.902,13.031,39.902,13.087,39.902L13.087,39.902z M13.087,40.344v0.359c-0.056-0.027-0.111-0.027-0.166-0.027v-0.415
		C12.948,40.289,13.031,40.316,13.087,40.344L13.087,40.344z M13.087,40.896v0.138c-0.027,0-0.056-0.027-0.083-0.027
		c-0.028,0-0.056,0-0.083-0.028v-0.109C12.976,40.896,13.031,40.896,13.087,40.896L13.087,40.896z M13.087,41.145v0.111
		c-0.056,0.027-0.111,0.027-0.139,0h-0.027v-0.111h0.027C13.004,41.145,13.06,41.145,13.087,41.145L13.087,41.145z M13.087,41.531
		v0.139c-0.056,0-0.111,0.027-0.166,0.027v-0.166C12.976,41.531,13.031,41.531,13.087,41.531z M12.921,28.879
		c-0.11,0.027-0.221,0.027-0.332,0.027v0.607c0.111,0,0.222,0,0.332,0.027V28.879L12.921,28.879z M12.589,43.162
		c0.111,0.027,0.222,0.027,0.332,0.027v-1.133c-0.139,0.055-0.249,0.11-0.332,0.138V43.162L12.589,43.162z M12.921,29.762v0.995
		l-0.332,0.11v-1.105C12.7,29.762,12.811,29.762,12.921,29.762L12.921,29.762z M12.921,31.006v0.11l-0.11,0.027
		c-0.11,0.028-0.166,0.056-0.222,0.083v-0.139L12.921,31.006L12.921,31.006z M12.921,32.801v0.222l-0.332,0.083v-0.139
		c0.083-0.055,0.193-0.11,0.277-0.138L12.921,32.801L12.921,32.801z M12.921,33.188v0.083c-0.027,0-0.055,0-0.055,0
		c-0.028,0-0.139,0.055-0.277,0.082v-0.082L12.921,33.188L12.921,33.188z M12.921,33.658v0.331c-0.607,1.437-0.055,2.79-0.055,2.79
		h0.055v0.415c-0.11-0.138-0.249-0.415-0.332-0.802v-1.768C12.672,34.211,12.811,33.879,12.921,33.658L12.921,33.658z
		 M12.921,37.498c-0.055-0.055-0.166-0.166-0.332-0.304v0.663c0.111,0,0.222,0,0.332,0V37.498L12.921,37.498z M12.921,38.299v0.166
		c-0.11,0-0.221,0-0.332,0v-0.166C12.7,38.299,12.811,38.299,12.921,38.299L12.921,38.299z M12.921,38.962v0.193
		c-0.055,0-0.11-0.027-0.139-0.027c-0.082,0-0.138,0-0.193,0v-0.166c0.056,0,0.111,0,0.193,0
		C12.838,38.962,12.866,38.962,12.921,38.962L12.921,38.962z M12.921,39.818v0.359c-0.027,0.027-0.027,0.056,0,0.083v0.415
		c-0.11-0.028-0.249-0.056-0.332-0.084v-0.138c0.028,0,0.056,0,0.083,0c0.139,0,0.249-0.027,0.194-0.083
		c-0.028,0-0.166-0.055-0.277-0.11v-0.138c0.139,0.027,0.166,0,0.222-0.056c0.027-0.056-0.056-0.11-0.11-0.165
		c-0.028,0-0.056-0.028-0.111-0.056v-0.166C12.728,39.736,12.866,39.791,12.921,39.818L12.921,39.818z M12.921,40.869v0.109
		c-0.083,0-0.193,0-0.332-0.027v-0.138C12.7,40.841,12.811,40.841,12.921,40.869L12.921,40.869z M12.921,41.145v0.111
		c-0.055,0-0.193,0-0.332,0v-0.139C12.7,41.117,12.838,41.117,12.921,41.145L12.921,41.145z M12.921,41.531v0.166
		c-0.11,0.027-0.249,0.056-0.332,0.11v-0.11l0,0c0.111,0.027,0.111-0.055,0.166-0.11C12.782,41.56,12.838,41.56,12.921,41.531z
		 M12.589,28.906l-0.11,0.027v0.58c0.028,0,0.056,0,0.083,0h0.027V28.906L12.589,28.906z M12.479,43.162h0.11v-0.968
		c-0.055,0.028-0.082,0.028-0.11,0.028V43.162L12.479,43.162z M12.589,29.762v1.105h-0.082c0,0,0,0.027-0.028,0.027v-0.469
		c0.056-0.056,0.056-0.083,0.056-0.139c0-0.055,0-0.11-0.056-0.138v-0.388h0.028H12.589L12.589,29.762z M12.589,31.088v0.139
		c-0.055,0.027-0.082,0.055-0.11,0.055v-0.193c0.056,0,0.083,0,0.083,0H12.589L12.589,31.088z M12.589,32.967v0.139l-0.11,0.027
		v-0.138C12.507,32.995,12.534,32.967,12.589,32.967L12.589,32.967z M12.589,33.271v0.082l-0.11,0.027v-0.082L12.589,33.271
		L12.589,33.271z M12.589,34.625v1.768c-0.055-0.193-0.082-0.414-0.11-0.662v-0.498C12.507,35.012,12.534,34.818,12.589,34.625
		L12.589,34.625z M12.589,37.194v0.663l-0.11,0.027v-0.746C12.507,37.166,12.534,37.166,12.589,37.194L12.589,37.194z
		 M12.589,38.299v0.166h-0.11v-0.193L12.589,38.299L12.589,38.299z M12.589,38.962v0.166h-0.11v-0.193L12.589,38.962L12.589,38.962z
		 M12.589,39.681v0.166c-0.027,0-0.082-0.028-0.11-0.028v-0.166C12.507,39.652,12.534,39.681,12.589,39.681L12.589,39.681z
		 M12.589,40.123v0.138l-0.11-0.027v-0.138C12.507,40.096,12.562,40.123,12.589,40.123L12.589,40.123z M12.589,40.454v0.138
		c-0.027,0-0.055,0-0.082,0h-0.028v-0.138C12.507,40.454,12.562,40.454,12.589,40.454L12.589,40.454z M12.589,40.813v0.138h-0.11
		v-0.138H12.589L12.589,40.813z M12.589,41.117v0.139h-0.11v-0.139H12.589L12.589,41.117z M12.589,41.697v0.11
		c-0.055,0-0.082,0-0.11,0.028V41.67C12.507,41.67,12.562,41.697,12.589,41.697z M12.479,28.934c-0.027,0-0.083,0-0.11,0v0.58
		c0.027,0,0.083,0,0.11,0V28.934L12.479,28.934z M12.368,43.134c0.027,0,0.083,0.028,0.11,0.028v-0.939
		c-0.027,0.027-0.083,0.027-0.11,0.027V43.134L12.368,43.134z M12.479,29.762v0.388c-0.027-0.028-0.055-0.056-0.11-0.056v-0.332
		C12.396,29.762,12.451,29.762,12.479,29.762L12.479,29.762z M12.479,30.426v0.469c-0.027,0-0.055,0.028-0.055,0.084
		c0,0.055,0.027,0.082,0.055,0.109v0.193c-0.027,0.028-0.083,0.056-0.11,0.084v-0.912C12.424,30.453,12.451,30.426,12.479,30.426
		L12.479,30.426z M12.479,32.995v0.138l-0.11,0.027v-0.138c0.027,0,0.027,0,0.056,0C12.424,33.022,12.451,33.022,12.479,32.995
		L12.479,32.995z M12.479,33.299v0.082l-0.11,0.057v-0.111L12.479,33.299L12.479,33.299z M12.479,35.232v0.498
		c0-0.084,0-0.166,0-0.277C12.479,35.371,12.479,35.315,12.479,35.232L12.479,35.232z M12.479,37.139v0.746h-0.11v-0.828
		C12.424,37.084,12.451,37.111,12.479,37.139L12.479,37.139z M12.479,38.271v0.193c-0.027,0-0.083,0-0.11,0v-0.193
		C12.396,38.271,12.451,38.271,12.479,38.271L12.479,38.271z M12.479,38.935v0.193c-0.027,0-0.083-0.027-0.11-0.027v-0.166
		C12.396,38.935,12.451,38.935,12.479,38.935L12.479,38.935z M12.479,39.652v0.166c-0.027-0.027-0.055-0.027-0.11-0.027v-0.166
		C12.424,39.625,12.451,39.625,12.479,39.652L12.479,39.652z M12.479,40.096v0.138c-0.027,0-0.083-0.028-0.11-0.028V40.04
		c0.027,0.027,0.056,0.027,0.083,0.056H12.479L12.479,40.096z M12.479,40.454v0.138c-0.027,0-0.055-0.027-0.11-0.027v-0.138
		L12.479,40.454L12.479,40.454z M12.479,40.813v0.138h-0.11v-0.166C12.396,40.785,12.451,40.785,12.479,40.813L12.479,40.813z
		 M12.479,41.117v0.139h-0.11v-0.139H12.479L12.479,41.117z M12.479,41.67v0.166c-0.027,0-0.083,0.027-0.11,0.027v-0.221
		C12.396,41.643,12.451,41.67,12.479,41.67z M12.368,28.934c-0.083,0.027-0.138,0.027-0.221,0.055v0.58
		c0.055-0.027,0.138-0.055,0.221-0.055V28.934L12.368,28.934z M12.147,43.106c0.083,0,0.138,0.027,0.221,0.027V42.25
		c0,0,0,0-0.027,0c-0.083-0.027-0.166-0.056-0.193-0.083V43.106L12.147,43.106z M12.368,29.762v0.332l0,0
		c-0.083,0-0.166,0.083-0.166,0.193c0,0.083,0.083,0.166,0.166,0.166l0,0v0.912c-0.055,0.055-0.11,0.109-0.166,0.165
		c0,0.028-0.027,0.056-0.055,0.11v-1.768C12.202,29.817,12.285,29.79,12.368,29.762L12.368,29.762z M12.368,33.022v0.138
		l-0.221,0.084v-0.359l0,0C12.202,32.995,12.285,32.995,12.368,33.022L12.368,33.022z M12.368,33.326v0.111l-0.221,0.055v-0.083
		L12.368,33.326L12.368,33.326z M12.368,37.057v0.828c-0.083,0-0.138,0-0.221,0v-0.912C12.23,37.001,12.313,37.028,12.368,37.057
		L12.368,37.057z M12.368,38.271v0.193c-0.083-0.027-0.138-0.027-0.221-0.027v-0.193C12.23,38.271,12.285,38.271,12.368,38.271
		L12.368,38.271z M12.368,38.935v0.166c-0.083,0-0.138,0-0.221-0.028v-0.165C12.23,38.907,12.285,38.935,12.368,38.935
		L12.368,38.935z M12.368,39.625v0.166c-0.055-0.027-0.138-0.055-0.221-0.083v-0.165C12.23,39.57,12.313,39.598,12.368,39.625
		L12.368,39.625z M12.368,40.04v0.165l0,0c-0.027-0.027-0.11-0.055-0.221-0.055v-0.166C12.23,40.012,12.313,40.04,12.368,40.04
		L12.368,40.04z M12.368,40.427v0.138c-0.055,0-0.138,0-0.221,0v-0.166L12.368,40.427L12.368,40.427z M12.368,40.785v0.166
		c-0.055,0-0.138,0-0.221,0v-0.193C12.23,40.785,12.313,40.785,12.368,40.785L12.368,40.785z M12.368,41.117v0.139
		c-0.083,0-0.138,0-0.221-0.028v-0.11C12.23,41.117,12.285,41.117,12.368,41.117L12.368,41.117z M12.368,41.643v0.221
		c-0.083,0.027-0.138,0.055-0.166,0.11c-0.027,0-0.055,0.027-0.055,0.027V41.78c0.027-0.027,0.027-0.056,0-0.083v-0.166
		c0.055,0,0.083,0.028,0.11,0.056C12.285,41.587,12.313,41.614,12.368,41.643z M12.147,28.988c-0.11,0-0.221,0.028-0.359,0.056
		v0.773c0.11-0.11,0.193-0.193,0.359-0.249V28.988L12.147,28.988z M11.788,43.023c0.139,0.027,0.249,0.055,0.359,0.083v-0.939
		c-0.027-0.056-0.027-0.083,0-0.166V41.78l-0.027,0.027c-0.083,0.056-0.139,0.139-0.222,0.139c-0.027,0-0.055,0-0.11,0V43.023
		L11.788,43.023z M12.147,29.873v1.768c-0.083,0.222-0.193,0.608-0.193,0.691c0,0.082,0.11,0.414,0.193,0.553v0.359l-0.359,0.082
		v-2.432l0,0c0.083,0,0.166-0.055,0.166-0.138s-0.083-0.138-0.166-0.138l0,0v-0.415C11.927,30.094,12.009,29.955,12.147,29.873
		L12.147,29.873z M12.147,33.409v0.083l-0.359,0.11v-0.11L12.147,33.409L12.147,33.409z M12.147,36.973v0.912
		c-0.11,0-0.221,0-0.359,0v-1.022C11.927,36.891,12.037,36.918,12.147,36.973L12.147,36.973z M12.147,38.244v0.193
		c-0.11,0-0.221-0.027-0.359-0.056v-0.165C11.927,38.217,12.037,38.244,12.147,38.244L12.147,38.244z M12.147,38.907v0.165
		c-0.11,0-0.249-0.027-0.359-0.055v-0.166C11.898,38.852,12.037,38.879,12.147,38.907L12.147,38.907z M12.147,39.543v0.165
		c-0.11-0.027-0.221-0.027-0.359-0.056v-0.165C11.927,39.515,12.037,39.515,12.147,39.543L12.147,39.543z M12.147,39.984v0.166
		c-0.11-0.027-0.221-0.055-0.359-0.055v-0.193C11.954,39.93,12.064,39.957,12.147,39.984L12.147,39.984z M12.147,40.398v0.166
		c-0.11,0-0.221,0-0.359,0v-0.193h0.027C11.898,40.371,12.009,40.398,12.147,40.398L12.147,40.398z M12.147,40.758v0.193
		c-0.11-0.027-0.221-0.027-0.359-0.027v-0.166C11.927,40.758,12.037,40.758,12.147,40.758L12.147,40.758z M12.147,41.117v0.11
		c-0.139,0-0.249,0-0.359,0v-0.11C11.898,41.117,12.037,41.117,12.147,41.117L12.147,41.117z M12.147,41.531v0.166c0,0,0,0-0.027,0
		c-0.028-0.027-0.166-0.055-0.332-0.083v-0.083c0.083,0,0.11,0,0.166,0C12.009,41.531,12.092,41.531,12.147,41.531z M11.788,29.044
		c-0.027,0.028-0.055,0.028-0.11,0.028v0.883c0.056-0.055,0.083-0.109,0.11-0.138V29.044L11.788,29.044z M11.678,42.996
		c0.056,0.027,0.083,0.027,0.11,0.027v-1.077c-0.027,0-0.055,0-0.11,0V42.996L11.678,42.996z M11.788,30.204v0.415
		c-0.027,0-0.083,0.027-0.11,0.055v-0.359C11.733,30.287,11.761,30.26,11.788,30.204L11.788,30.204z M11.788,30.895v2.432
		l-0.11,0.055v-1.16c0.056,0,0.083-0.055,0.083-0.082c0-0.056-0.027-0.083-0.083-0.083V30.84
		C11.705,30.895,11.761,30.895,11.788,30.895L11.788,30.895z M11.788,33.492v0.11l-0.11,0.027v-0.083L11.788,33.492L11.788,33.492z
		 M11.788,36.862v1.022c-0.027,0-0.055,0-0.11,0v-1.05C11.733,36.835,11.761,36.835,11.788,36.862L11.788,36.862z M11.788,38.217
		v0.165c-0.027,0-0.055,0-0.11,0v-0.193C11.733,38.188,11.761,38.217,11.788,38.217L11.788,38.217z M11.788,38.852v0.166
		c-0.027,0-0.055,0-0.11-0.027v-0.166C11.733,38.824,11.761,38.824,11.788,38.852L11.788,38.852z M11.788,39.487v0.165
		c-0.027,0-0.055,0-0.11,0v-0.193C11.733,39.487,11.761,39.487,11.788,39.487L11.788,39.487z M11.788,39.902v0.193
		c-0.027-0.028-0.055-0.028-0.11-0.028v-0.165C11.733,39.902,11.761,39.902,11.788,39.902L11.788,39.902z M11.788,40.371v0.193
		h-0.11v-0.193H11.788L11.788,40.371z M11.788,40.758v0.166h-0.11v-0.166l0,0C11.733,40.758,11.761,40.758,11.788,40.758
		L11.788,40.758z M11.788,41.117v0.11c-0.027,0-0.083,0.028-0.11,0.028v-0.139H11.788L11.788,41.117z M11.788,41.531v0.083h-0.11
		v-0.083H11.788z M11.678,29.072c-0.056,0.027-0.083,0.027-0.138,0.055v0.994c0.055-0.055,0.11-0.11,0.138-0.166V29.072
		L11.678,29.072z M11.54,42.969c0.055,0,0.082,0.027,0.138,0.027v-1.05c-0.027,0-0.083-0.028-0.138-0.028V42.969L11.54,42.969z
		 M11.678,30.314v0.359c0,0.027-0.027,0.056-0.027,0.083c0,0.028,0.027,0.056,0.027,0.083v1.216c-0.027,0-0.056,0.027-0.056,0.083
		c0,0.027,0.028,0.082,0.056,0.082v1.16l-0.138,0.028v-2.983C11.595,30.398,11.65,30.37,11.678,30.314L11.678,30.314z
		 M11.678,33.547v0.083l-0.138,0.028v-0.084L11.678,33.547L11.678,33.547z M11.678,36.835v1.05
		c-0.056-0.027-0.083-0.027-0.138-0.027v-1.051C11.595,36.807,11.65,36.835,11.678,36.835L11.678,36.835z M11.678,38.188v0.193
		c-0.056-0.027-0.083-0.027-0.138-0.027v-0.193C11.595,38.161,11.622,38.188,11.678,38.188L11.678,38.188z M11.678,38.824v0.166
		c-0.056,0-0.083-0.028-0.138-0.028v-0.193C11.595,38.797,11.622,38.797,11.678,38.824L11.678,38.824z M11.678,39.459v0.193
		c-0.027-0.027-0.083-0.027-0.138-0.027v-0.166C11.595,39.459,11.622,39.459,11.678,39.459L11.678,39.459z M11.678,39.902v0.165
		c-0.056,0-0.083,0-0.138-0.027v-0.138C11.595,39.902,11.65,39.902,11.678,39.902L11.678,39.902z M11.678,40.371v0.193
		c-0.056,0-0.083,0-0.138,0v-0.193C11.595,40.371,11.65,40.371,11.678,40.371L11.678,40.371z M11.678,40.758v0.166H11.54v-0.166
		C11.595,40.758,11.622,40.758,11.678,40.758L11.678,40.758z M11.678,41.117v0.139c-0.056,0-0.083,0-0.11,0H11.54v-0.139
		C11.595,41.117,11.622,41.117,11.678,41.117L11.678,41.117z M11.678,41.531v0.083l-0.138-0.027v-0.083L11.678,41.531z
		 M11.54,29.127c-0.084,0-0.166,0.027-0.249,0.055v0.222c0.083,0,0.138,0.056,0.138,0.138c0,0.056-0.055,0.11-0.138,0.11v0.608
		c0.11-0.027,0.193-0.083,0.249-0.139V29.127L11.54,29.127z M11.291,42.885c0.083,0.028,0.165,0.056,0.249,0.084v-1.051h-0.084
		c-0.055-0.027-0.109-0.027-0.165-0.055V42.885L11.291,42.885z M11.54,30.426v2.983l-0.249,0.083v-0.139h0.083v-0.138h-0.083v-0.11
		h0.083v-1.409c-0.027-0.056-0.056-0.083-0.083-0.083v-1.105C11.401,30.508,11.484,30.453,11.54,30.426L11.54,30.426z M11.54,33.574
		v0.084l-0.249,0.082v-0.082L11.54,33.574L11.54,33.574z M11.54,36.807v1.051c-0.084,0-0.166,0-0.249-0.027v-1.051
		C11.374,36.807,11.456,36.807,11.54,36.807L11.54,36.807z M11.54,38.161v0.193c-0.084-0.027-0.166-0.056-0.249-0.056v-0.193
		C11.374,38.133,11.456,38.133,11.54,38.161L11.54,38.161z M11.54,38.769v0.193c-0.084-0.027-0.166-0.027-0.249-0.055v-0.193
		C11.374,38.741,11.456,38.769,11.54,38.769L11.54,38.769z M11.54,39.459v0.166c-0.084,0-0.166,0-0.249,0v-0.166h0.083
		C11.429,39.459,11.484,39.459,11.54,39.459L11.54,39.459z M11.54,39.902v0.138c-0.084,0-0.166,0-0.249,0v-0.166
		C11.401,39.874,11.456,39.902,11.54,39.902L11.54,39.902z M11.54,40.371v0.193c-0.084,0-0.166,0-0.249,0.027v-0.193
		C11.374,40.371,11.456,40.371,11.54,40.371L11.54,40.371z M11.54,40.758v0.166h-0.084c-0.055,0-0.109,0-0.165,0v-0.166
		C11.374,40.758,11.456,40.758,11.54,40.758L11.54,40.758z M11.54,41.117v0.139c-0.111,0.055-0.193,0.082-0.249,0.11v-0.222h0.056
		C11.374,41.145,11.456,41.145,11.54,41.117L11.54,41.117z M11.54,41.504v0.083c-0.056,0-0.111,0-0.166,0
		c-0.027,0-0.056-0.027-0.083-0.027v-0.056H11.54z M11.291,29.182c-0.056,0.028-0.083,0.028-0.139,0.056v1.05
		c0.056,0,0.11,0,0.139-0.027v-0.608c-0.056,0-0.11-0.055-0.11-0.11c0-0.082,0.055-0.138,0.11-0.138V29.182L11.291,29.182z
		 M11.152,42.857c0.056,0,0.083,0.027,0.139,0.027v-1.021c-0.028,0-0.083,0-0.139,0V42.857L11.152,42.857z M11.291,30.508v1.105
		c-0.083-0.083-0.139,0.056-0.139,0.056v-1.133C11.208,30.536,11.263,30.536,11.291,30.508L11.291,30.508z M11.291,33.105v0.11
		h-0.139v-0.11H11.291L11.291,33.105z M11.291,33.354v0.139l-0.139,0.027v-0.166H11.291L11.291,33.354z M11.291,33.658v0.082
		l-0.139,0.056v-0.11L11.291,33.658L11.291,33.658z M11.291,36.779v1.051c-0.028,0-0.056,0-0.083,0s-0.056,0-0.056,0v-0.222
		c0.028,0.028,0.028,0.028,0.028,0.028v-0.857C11.235,36.779,11.263,36.779,11.291,36.779L11.291,36.779z M11.291,38.105v0.193
		c-0.056-0.027-0.083-0.027-0.139-0.055v-0.193C11.208,38.078,11.235,38.105,11.291,38.105L11.291,38.105z M11.291,38.714v0.193
		c-0.056-0.028-0.083-0.028-0.139-0.056v-0.193C11.208,38.686,11.235,38.714,11.291,38.714L11.291,38.714z M11.291,39.459v0.166
		h-0.028c-0.027,0-0.082,0-0.11,0v-0.166C11.208,39.459,11.235,39.459,11.291,39.459L11.291,39.459z M11.291,39.874v0.166l0,0
		c-0.056,0-0.11,0-0.139,0v-0.166h0.056H11.291L11.291,39.874z M11.291,40.398v0.193c-0.056,0-0.083,0-0.139,0v-0.193
		C11.208,40.398,11.235,40.398,11.291,40.398L11.291,40.398z M11.291,40.758v0.166c-0.028,0-0.083,0.027-0.139,0.027v-0.166
		C11.208,40.785,11.235,40.758,11.291,40.758L11.291,40.758z M11.291,41.145v0.222c-0.083,0.083-0.083,0.11-0.056,0.11
		s0.027,0.027,0.056,0.027v0.056c-0.028,0-0.083,0-0.139,0V41.2C11.208,41.173,11.263,41.173,11.291,41.145z M11.152,29.237
		c-0.055,0.028-0.11,0.028-0.165,0.056v0.994h0.11c0,0,0.027,0,0.055,0V29.237L11.152,29.237z M10.987,42.803
		c0.055,0,0.11,0.027,0.165,0.055v-0.994c-0.055-0.027-0.11-0.027-0.165-0.027v0.221l0,0c0.082,0,0.165,0.055,0.165,0.138
		s-0.083,0.166-0.165,0.166l0,0V42.803L10.987,42.803z M11.152,30.536v1.133l0,0v0.193c-0.055,0-0.11,0-0.165,0.027v-1.326h0.027
		C11.069,30.563,11.098,30.563,11.152,30.536L11.152,30.536z M11.152,33.105v0.11h-0.165V32.11c0.082,0,0.138,0,0.138,0
		l-0.083,0.995H11.152L11.152,33.105z M11.152,33.354v0.166l-0.165,0.055v-0.221H11.152L11.152,33.354z M11.152,33.686v0.11
		l-0.165,0.027V33.74L11.152,33.686L11.152,33.686z M11.152,37.608v0.222c-0.055-0.028-0.11-0.028-0.165-0.056v-0.193
		C11.042,37.608,11.098,37.608,11.152,37.608L11.152,37.608z M11.152,38.051v0.193c-0.055,0-0.11-0.027-0.165-0.027v-0.193
		C11.042,38.023,11.098,38.051,11.152,38.051L11.152,38.051z M11.152,38.658v0.193c-0.055-0.027-0.11-0.027-0.165-0.055v-0.193
		C11.042,38.631,11.098,38.658,11.152,38.658L11.152,38.658z M11.152,39.459v0.166c-0.055,0-0.11,0-0.165,0v-0.166
		C11.042,39.459,11.098,39.459,11.152,39.459L11.152,39.459z M11.152,39.874v0.166c-0.055,0-0.11,0-0.165,0.027v-0.165
		C11.042,39.902,11.098,39.874,11.152,39.874L11.152,39.874z M11.152,40.398v0.193c-0.055,0-0.11,0-0.165,0.028v-0.193
		C11.042,40.398,11.098,40.398,11.152,40.398L11.152,40.398z M11.152,40.785v0.166c-0.055,0-0.11,0-0.165,0.027v-0.193
		C11.042,40.785,11.098,40.785,11.152,40.785L11.152,40.785z M11.152,41.2v0.359c-0.055,0-0.11,0-0.165,0v-0.332
		C11.042,41.228,11.098,41.2,11.152,41.2z M10.987,29.293c-0.166,0.055-0.332,0.138-0.498,0.193v0.746
		c0.111,0.027,0.276,0.055,0.498,0.055V29.293L10.987,29.293z M10.489,42.582c0.166,0.082,0.332,0.138,0.498,0.221V42.36
		c-0.083,0-0.139-0.083-0.139-0.166s0.056-0.138,0.139-0.138v-0.221c-0.111,0-0.193,0-0.305,0c-0.055,0-0.109,0-0.193,0V42.582
		L10.489,42.582z M10.987,30.563v1.326c-0.193,0-0.359,0.083-0.498,0.166v-0.663c0.056,0,0.111-0.056,0.111-0.111
		c0-0.055-0.056-0.109-0.111-0.109v-0.746C10.628,30.48,10.794,30.563,10.987,30.563L10.987,30.563z M10.987,32.11v1.105h-0.083
		v0.138h0.083v0.221l-0.498,0.139v-1.354c0.084-0.056,0.166-0.11,0.222-0.166C10.821,32.139,10.932,32.11,10.987,32.11L10.987,32.11
		z M10.987,33.74v0.083l-0.498,0.166v-0.11L10.987,33.74L10.987,33.74z M10.987,37.581v0.193c-0.166-0.028-0.359-0.11-0.498-0.166
		v-0.249c0.056,0,0.084,0,0.028-0.055c0-0.027-0.028-0.027-0.028-0.055v-0.222c0.028-0.056,0.028-0.083,0.056-0.11
		c0.11-0.139,0.331-0.139,0.331-0.139v0.719C10.904,37.525,10.959,37.553,10.987,37.581L10.987,37.581z M10.987,38.023v0.193
		c-0.166-0.056-0.359-0.139-0.498-0.193V37.83C10.628,37.885,10.821,37.968,10.987,38.023L10.987,38.023z M10.987,38.604v0.193
		c-0.166-0.056-0.359-0.139-0.498-0.193V38.41C10.628,38.465,10.794,38.548,10.987,38.604L10.987,38.604z M10.987,39.459v0.166
		c-0.166,0.027-0.332,0.056-0.498,0.083v-0.193C10.628,39.487,10.821,39.487,10.987,39.459L10.987,39.459z M10.987,39.902v0.165
		c-0.166,0-0.359,0.028-0.498,0.056v-0.166C10.628,39.93,10.794,39.902,10.987,39.902L10.987,39.902z M10.987,40.427v0.193
		c-0.166,0-0.332,0.027-0.442,0.056l-0.056,0.027V40.51c0.028,0,0.028,0,0.056,0c0.083,0.027,0.11,0,0.359-0.083
		C10.932,40.427,10.959,40.427,10.987,40.427L10.987,40.427z M10.987,40.785v0.193c-0.166,0-0.332,0.056-0.498,0.084v-0.193
		C10.628,40.841,10.794,40.813,10.987,40.785L10.987,40.785z M10.987,41.228v0.332c-0.193,0-0.414,0-0.498,0v-0.166
		C10.655,41.338,10.821,41.283,10.987,41.228z M10.489,29.486c-0.082,0.055-0.165,0.082-0.248,0.138v0.497
		c0.055,0.056,0.139,0.083,0.248,0.111V29.486L10.489,29.486z M10.241,42.471c0.083,0.027,0.166,0.083,0.248,0.111v-0.746
		c-0.109,0-0.221-0.028-0.248-0.056V42.471L10.241,42.471z M10.489,30.426v0.746c-0.055,0-0.109,0.055-0.109,0.109
		c0,0.056,0.055,0.111,0.109,0.111v0.663c-0.109,0.055-0.193,0.138-0.248,0.193v-2.045C10.296,30.26,10.38,30.343,10.489,30.426
		L10.489,30.426z M10.489,32.359v1.354l-0.248,0.083v-0.663c0.083,0,0.139-0.055,0.139-0.138s-0.056-0.166-0.139-0.166v-0.304
		C10.324,32.47,10.407,32.414,10.489,32.359L10.489,32.359z M10.489,33.879v0.11l-0.248,0.056v-0.084L10.489,33.879L10.489,33.879z
		 M10.489,37.028v0.222C10.462,37.194,10.462,37.111,10.489,37.028L10.489,37.028z M10.489,37.359c-0.055,0-0.109-0.027-0.138-0.055
		c-0.027-0.027-0.083-0.055-0.11-0.11v0.249c0.055,0.055,0.166,0.109,0.248,0.165V37.359L10.489,37.359z M10.489,37.83v0.193
		c-0.082-0.028-0.193-0.084-0.248-0.111v-0.193C10.296,37.746,10.407,37.802,10.489,37.83L10.489,37.83z M10.489,38.41v0.193
		c-0.082-0.056-0.193-0.083-0.248-0.139v-0.221C10.296,38.299,10.407,38.354,10.489,38.41L10.489,38.41z M10.489,39.515v0.193
		c-0.082,0.028-0.165,0.028-0.248,0.056V39.57C10.296,39.543,10.407,39.543,10.489,39.515L10.489,39.515z M10.489,39.957v0.166
		c-0.109,0.027-0.193,0.055-0.221,0.055s-0.027,0-0.027,0V40.04C10.296,40.012,10.38,39.984,10.489,39.957L10.489,39.957z
		 M10.489,40.51v0.193c-0.082,0-0.165,0.027-0.248,0.082v-0.414c0.027,0.056,0.083,0.083,0.11,0.083
		C10.38,40.454,10.435,40.482,10.489,40.51L10.489,40.51z M10.489,40.869v0.193c-0.082,0.027-0.165,0.055-0.248,0.082v-0.193
		C10.296,40.924,10.38,40.896,10.489,40.869L10.489,40.869z M10.489,41.394v0.166c-0.027,0-0.027,0.027-0.027,0.027
		c-0.138,0.056-0.221,0.11-0.221,0.138v-0.221C10.296,41.477,10.38,41.449,10.489,41.394z M10.241,29.624
		c-0.11,0.056-0.221,0.11-0.332,0.166v0.967c0.056,0,0.111,0.056,0.111,0.11c0,0.056-0.056,0.111-0.111,0.111v1.408
		c0.111,0,0.222-0.055,0.332-0.138v-2.045c-0.056-0.083-0.083-0.138-0.083-0.138c0.027,0.027,0.056,0.055,0.083,0.055V29.624
		L10.241,29.624z M9.909,40.371c0.222,0.056,0.332,0.111,0.305,0.193c-0.056,0.111-0.111,0.111-0.305,0.056v0.276
		c0.111-0.027,0.222-0.083,0.332-0.111v-0.414c-0.027,0-0.056,0-0.056-0.027c-0.055-0.055-0.11-0.11,0.056-0.166V40.04
		c-0.11,0.027-0.166,0.056-0.221,0.083c-0.028,0.027-0.056,0.027-0.111,0.055V40.371L9.909,40.371z M9.909,42.277
		c0.111,0.083,0.222,0.139,0.332,0.193v-0.69c-0.027-0.027-0.027-0.027,0-0.056v-0.221c-0.027,0-0.056,0-0.056,0.027
		c-0.11,0.028-0.193,0.083-0.276,0.139V42.277L9.909,42.277z M10.241,32.525v0.304c-0.11,0-0.166,0.083-0.166,0.166
		s0.056,0.138,0.166,0.138v0.663l-0.305,0.083l-0.027,0.027V32.58h0.027C10.048,32.58,10.131,32.553,10.241,32.525L10.241,32.525z
		 M10.241,33.961v0.084l-0.056,0.027c-0.11,0.027-0.193,0.11-0.276,0.221v-0.276c0.056,0,0.083,0,0.083,0L10.241,33.961
		L10.241,33.961z M10.241,37.194v0.249c-0.139-0.084-0.249-0.193-0.332-0.277v-0.387C10.021,36.945,10.131,37.084,10.241,37.194
		L10.241,37.194z M10.241,37.719v0.193c-0.139-0.055-0.249-0.11-0.332-0.166v-0.193C9.992,37.581,10.103,37.637,10.241,37.719
		L10.241,37.719z M10.241,38.244v0.221c-0.139-0.083-0.249-0.138-0.332-0.193v-0.221C9.992,38.105,10.103,38.188,10.241,38.244
		L10.241,38.244z M10.241,39.57v0.193c-0.139,0.027-0.249,0.083-0.332,0.11v-0.222C9.992,39.625,10.075,39.598,10.241,39.57
		L10.241,39.57z M10.241,40.951v0.193c-0.139,0.028-0.221,0.083-0.332,0.111V41.09l0.056-0.027
		C10.021,41.034,10.103,40.979,10.241,40.951z M9.909,29.79c-0.055,0.027-0.11,0.056-0.166,0.11
		c0.028-0.055,0.056-0.083,0.056-0.139l-0.027-0.275c0-0.111-0.083-0.166-0.166-0.166H9.578v0.166h0.027l0.027,0.304H9.578v0.193
		c0.083,0.027,0.11,0.083,0.11,0.166c0,0.055-0.056,0.138-0.11,0.193v2.017c0.11,0.027,0.249,0.027,0.331,0.027l0,0v-1.408l0,0
		c-0.055,0-0.11-0.056-0.11-0.111c0-0.055,0.056-0.11,0.11-0.11l0,0V29.79L9.909,29.79z M9.578,40.316h0.055
		c0.11,0.027,0.194,0.027,0.276,0.055v-0.193c-0.11,0.027-0.221,0-0.276,0H9.578V40.316L9.578,40.316z M9.909,40.62L9.909,40.62
		c-0.082-0.028-0.193-0.056-0.331-0.11v0.138c0.138,0.056,0.249,0.11,0.221,0.166c-0.027,0.056-0.11,0.083-0.221,0.083v0.166
		c0.083-0.056,0.221-0.111,0.331-0.166V40.62L9.909,40.62z M9.578,42.25c0.027-0.056,0.055-0.083,0.055-0.11
		c0.11,0.055,0.194,0.11,0.276,0.138V41.67c-0.082,0.027-0.138,0.055-0.166,0.083c-0.082,0.055-0.082,0.11-0.165,0.083V42.25
		L9.578,42.25z M9.909,32.58v1.326c-0.055,0.055-0.027,0.083,0,0.11v0.276c-0.166,0.249-0.276,0.691-0.331,1.078V32.47
		C9.688,32.525,9.799,32.58,9.909,32.58L9.909,32.58z M9.909,36.779v0.387c-0.11-0.109-0.193-0.248-0.193-0.304
		c-0.027-0.083-0.083-0.193-0.138-0.276v-0.58C9.633,36.282,9.771,36.559,9.909,36.779L9.909,36.779z M9.909,37.553v0.193
		c-0.138-0.082-0.193-0.138-0.221-0.138c-0.027-0.027-0.056-0.083-0.027-0.11c0.027-0.055,0.082-0.055,0.138-0.027
		C9.799,37.471,9.827,37.498,9.909,37.553L9.909,37.553z M9.909,38.051v0.221c-0.193-0.139-0.304-0.221-0.304-0.248
		c0,0-0.027,0-0.027-0.028v-0.056c0-0.027,0.027-0.027,0.027-0.027c0.027-0.055,0.083-0.055,0.138,0
		C9.743,37.912,9.799,37.968,9.909,38.051L9.909,38.051z M9.909,39.652v0.222c-0.138,0.056-0.248,0.083-0.331,0.11v-0.193
		c0.027-0.055,0.055-0.083,0-0.11v-0.193c0.165,0.11,0.304,0.165,0.304,0.165H9.909L9.909,39.652z M9.909,41.09v0.166
		c-0.11,0.055-0.221,0.082-0.331,0.138v-0.138C9.661,41.2,9.799,41.145,9.909,41.09z M9.578,29.32H9.385v0.166h0.193V29.32
		L9.578,29.32z M9.385,40.289c0.083,0,0.138,0,0.193,0.027v-0.139c-0.083-0.027-0.193-0.055-0.028-0.166c0,0,0.028,0,0.028-0.027
		v-0.193c-0.028,0.056-0.11,0.111-0.193,0.111V40.289L9.385,40.289z M9.578,40.51c-0.056,0-0.11-0.027-0.193-0.027v0.109
		c0.083,0.028,0.138,0.028,0.193,0.056V40.51L9.578,40.51z M9.578,40.896c-0.028,0-0.028,0-0.056,0
		c-0.027-0.027-0.083-0.027-0.138-0.056v0.332c0.027-0.028,0.027-0.028,0.083-0.056c0,0,0.055-0.027,0.11-0.055V40.896L9.578,40.896
		z M9.385,42.36c0.027-0.027,0.055-0.027,0.083-0.027c0.055-0.028,0.082-0.056,0.11-0.083v-0.414c0,0,0,0-0.028-0.028
		c-0.027,0-0.082-0.027-0.165-0.055v0.138c0.055,0.027,0.083,0.056,0.083,0.11c0.027,0.083,0.027,0.11-0.083,0.166V42.36
		L9.385,42.36z M9.578,29.79v0.193c-0.056-0.028-0.11-0.056-0.193-0.083v-0.11H9.578L9.578,29.79z M9.578,30.343v2.017
		c-0.083,0-0.166-0.027-0.193-0.027v-0.608c0,0,0.027,0,0.027-0.027s0-0.027-0.027-0.056v-1.188
		C9.439,30.426,9.522,30.398,9.578,30.343L9.578,30.343z M9.578,32.47c-0.083-0.056-0.166-0.11-0.193-0.11v3.702
		c0.083,0.027,0.11,0.083,0.11,0.165c0,0.056-0.027,0.084-0.11,0.084v0.193c0.083,0.027,0.138,0.027,0.165,0.055l0.028,0.027v-0.58
		c0-0.055-0.028-0.138-0.028-0.221c0-0.139,0.028-0.276,0.028-0.414V32.47L9.578,32.47z M9.578,37.939v0.056
		C9.578,37.968,9.578,37.939,9.578,37.939L9.578,37.939z M9.578,39.487v0.193c0,0,0-0.028-0.028-0.028
		c-0.055,0-0.11-0.027-0.165-0.055v-0.249C9.468,39.404,9.522,39.459,9.578,39.487L9.578,39.487z M9.578,41.256v0.138
		c-0.083,0.027-0.139,0.056-0.193,0.083v-0.249c0.027,0.056,0.083,0.056,0.11,0.056S9.55,41.256,9.578,41.256L9.578,41.256z
		 M9.385,30.232v-0.083c0.055,0.027,0.083,0.083,0.083,0.083C9.439,30.232,9.412,30.232,9.385,30.232z M9.385,29.32h-0.11v0.166
		h0.11V29.32L9.385,29.32z M9.274,40.289c0.027,0,0.082,0,0.11,0v-0.387l0,0c-0.056,0-0.083,0.027-0.11,0.027V40.289L9.274,40.289z
		 M9.385,40.482c-0.028,0-0.083,0-0.11-0.028v0.138c0.027,0,0.082,0,0.11,0l0,0V40.482L9.385,40.482z M9.385,40.841
		c-0.028,0-0.083,0-0.11-0.027v0.193c0.027,0.027,0.055,0.056,0.055,0.056c-0.027,0.027-0.027,0.055-0.055,0.082v0.387l0.027-0.027
		c0.027,0,0.055-0.027,0.083-0.027v-0.249c0,0,0-0.027,0-0.055V40.841L9.385,40.841z M9.274,42.389c0.027,0,0.082-0.028,0.11-0.028
		v-0.193l0,0c-0.028,0.027-0.083,0.027-0.11,0.027V42.389L9.274,42.389z M9.385,29.79v0.11c-0.028,0-0.083,0-0.11,0v-0.11H9.385
		L9.385,29.79z M9.385,30.149v0.083c-0.056,0-0.11,0.082-0.11,0.11c0,0.027,0,0.11,0.11,0.11l0,0v1.188
		c0-0.027-0.028-0.055-0.11-0.055V30.95c0-0.027,0.027-0.083,0.027-0.11c0-0.083,0-0.193-0.027-0.276v-0.414
		c0.027-0.028,0.027-0.028,0.055-0.028S9.385,30.149,9.385,30.149L9.385,30.149z M9.385,31.724v0.608l0,0v0.027v3.702
		c0-0.028-0.028-0.028-0.056-0.028c0,0-0.027,0-0.055-0.027v-0.138l0,0v-3.813l0,0v-0.222l0,0
		C9.329,31.834,9.385,31.779,9.385,31.724L9.385,31.724z M9.385,36.311v0.193c-0.028,0-0.083,0-0.11-0.028v-0.165l0,0
		C9.302,36.311,9.356,36.311,9.385,36.311L9.385,36.311z M9.385,39.349v0.249c-0.028-0.027-0.083-0.055-0.11-0.083v-0.276
		C9.302,39.294,9.356,39.321,9.385,39.349L9.385,39.349z M9.385,41.753v0.138c-0.028,0-0.056-0.027-0.11-0.027l0,0v-0.166
		C9.302,41.725,9.356,41.725,9.385,41.753z M9.274,29.32H8.722c-0.027,0-0.056,0-0.083,0c-0.028,0-0.056,0-0.083,0l0,0v0.166l0,0
		l0.027,0.275H8.556v0.193h0.11v0.415h-0.11v0.138h0.027c0.222,0,0.222,0.553,0.222,0.553s-0.11-0.11-0.222-0.11H8.556v0.166l0,0
		c0.249,0,0.221,0.304,0.221,0.304H8.556v0.166h0.69h0.028V30.95c-0.056,0.11-0.139,0.193-0.221,0.193
		c-0.139,0-0.111-0.11-0.084-0.165c0.056-0.084,0.028-0.139,0.056-0.222c0.028-0.11,0.138-0.249,0.193-0.249
		c0.027,0,0.027,0.028,0.056,0.056v-0.414c-0.083,0-0.193,0.055-0.193,0.221c0,0-0.139,0.304-0.166,0.359
		c0,0.027-0.083-0.083-0.083-0.083v-0.607c0,0,0.193-0.139,0.414-0.139h0.028v-0.11H8.722v-0.304h0.553V29.32L9.274,29.32z
		 M8.556,39.598c0.139,0,0.193,0.055,0.193,0.083c0,0.083-0.027,0.138-0.166,0.11H8.556v0.083c0.221,0,0.387,0,0.414,0.083
		c0.028,0.083-0.027,0.166-0.221,0.166c-0.055,0-0.11,0-0.193,0v0.166c0.249-0.028,0.498-0.028,0.719,0V39.93
		c-0.056-0.027-0.139-0.027-0.221-0.111c-0.056-0.055-0.305-0.304-0.498-0.635V39.598L8.556,39.598z M9.274,40.454
		c-0.193-0.027-0.387-0.027-0.608,0c-0.027,0-0.083,0-0.11,0v0.193c0.305-0.027,0.553-0.056,0.719-0.056V40.454L9.274,40.454z
		 M9.274,40.813c-0.221-0.056-0.525-0.11-0.664-0.083c-0.027,0.027-0.055,0.027-0.055,0.027v0.056
		c0.055,0.027,0.166,0.056,0.249,0.083c0.083,0,0.358,0.055,0.47,0.11V40.813L9.274,40.813z M9.274,41.145
		c-0.056,0.028-0.139,0.028-0.305,0C8.86,41.117,8.722,41.09,8.556,41.09v0.166c0.305,0.027,0.498,0.055,0.553,0.082
		c0.055,0,0.055,0.083,0,0.139c-0.027,0.055-0.166,0-0.221,0.083c-0.056,0.083,0,0.083-0.056,0.083
		C8.776,41.67,8.666,41.67,8.556,41.67v0.166H8.86c0.055,0,0.303,0.027,0.414,0.027v-0.166c-0.028-0.027-0.056-0.027-0.083-0.055
		c-0.028-0.056,0.027-0.083,0.083-0.111V41.145L9.274,41.145z M8.556,42.416h0.387c0.083,0,0.193,0,0.332-0.027v-0.194
		c-0.111,0.028-0.221,0.028-0.332,0.028H8.556V42.416L8.556,42.416z M9.274,31.834v0.222H8.556v-0.222H9.274L9.274,31.834z
		 M9.274,35.868v0.138c-0.139-0.027-0.414-0.082-0.719-0.166v-0.138L9.274,35.868L9.274,35.868z M9.274,36.311v0.165
		c-0.083,0-0.139,0-0.139,0s0.11,0.304,0.11,0.497c0,0.553-0.441,0.719-0.441,1.382c0,0.359,0.221,0.663,0.47,0.884v0.276
		C8.86,39.238,8.61,38.741,8.61,38.327c0-0.497,0.498-1.077,0.498-1.326s-0.11-0.581-0.11-0.581l-0.332-0.109
		c0,0.138,0.194,0.193,0.194,0.635c0,0.249-0.166,0.498-0.305,0.773v-0.387c0.055-0.11,0.11-0.248,0.11-0.414
		c0-0.139-0.056-0.276-0.11-0.387v-0.387C8.915,36.227,9.219,36.282,9.274,36.311z M8.556,29.32H8.417c-0.027,0-0.055,0-0.082,0
		s-0.027,0-0.056,0H7.893v0.193h0.387v0.276H7.893v0.11c0.166,0.027,0.415,0.166,0.415,0.166v0.497
		c-0.139,0.166-0.139-0.056-0.222-0.193c-0.056-0.11-0.083-0.166-0.193-0.221v0.358c0-0.027,0.028-0.027,0.056-0.027
		c0.11,0.056,0.221,0.249,0.221,0.305c0,0.082,0.027,0.303-0.027,0.331c-0.056,0.056-0.111-0.028-0.166-0.11
		c-0.055-0.056-0.083-0.111-0.083-0.166v0.332c0.056,0.082,0.11,0.138,0.193,0.138c-0.027,0.027-0.056,0.056-0.083,0.083H7.948
		c-0.027,0-0.027,0-0.056,0.027v0.166c0.028,0,0.056,0,0.056,0h0.607V31.42H8.39c0,0-0.055-0.304,0.166-0.304V30.95
		c-0.11,0.028-0.193,0.11-0.193,0.11s0-0.497,0.193-0.553V30.37h-0.11v-0.415h0.11v-0.193H8.417v-0.275h0.139V29.32L8.556,29.32z
		 M7.893,39.681c0.083-0.028,0.193-0.056,0.276-0.056c0.166-0.027,0.304-0.027,0.387-0.027v-0.414
		c-0.139-0.222-0.248-0.47-0.248-0.719c0-0.276,0.109-0.525,0.248-0.746v-0.387c-0.166,0.305-0.441,0.553-0.441,1.022
		c0,0.636,0.331,0.994,0.387,1.077c0.055,0.111-0.111,0.056-0.193,0.056c-0.028,0-0.249,0-0.415,0.027V39.681L7.893,39.681z
		 M8.556,39.791c-0.139,0-0.332-0.027-0.663,0.027v0.166c0.249-0.055,0.47-0.082,0.608-0.11h0.055V39.791L8.556,39.791z
		 M8.556,40.123c-0.193,0-0.441,0.027-0.663,0.055v0.166c0.028,0,0.056,0,0.11,0c0.193-0.027,0.387-0.055,0.553-0.055V40.123
		L8.556,40.123z M8.556,40.454c-0.221,0.028-0.441,0.056-0.663,0.11v0.221c0.249-0.055,0.47-0.109,0.663-0.138V40.454L8.556,40.454z
		 M8.556,40.758v0.056C8.528,40.813,8.528,40.785,8.556,40.758L8.556,40.758z M8.556,41.09c-0.193-0.027-0.414-0.027-0.607-0.027
		L7.893,41.09v0.166c0.138-0.028,0.331-0.028,0.553-0.028l0.11,0.028V41.09L8.556,41.09z M7.893,42.416h0.663v-0.193H7.893V42.416
		L7.893,42.416z M8.556,31.834v0.222H7.893v-0.222l0,0H8.556L8.556,31.834z M8.556,35.702v0.138l-0.663-0.138v-0.138L8.556,35.702
		L8.556,35.702z M8.556,36.145v0.387c-0.083-0.139-0.166-0.249-0.221-0.249c-0.027,0-0.249-0.056-0.442-0.11v-0.166L8.556,36.145
		L8.556,36.145z M8.556,41.67v0.166H7.893V41.67c0.138,0,0.331,0,0.359,0C8.308,41.67,8.417,41.67,8.556,41.67z M7.893,29.32H7.479
		c-0.028,0-0.083,0.027-0.11,0.055v0.802C7.423,30.039,7.699,29.9,7.837,29.9c0.028,0,0.028,0,0.056,0v-0.11H7.479v-0.276h0.414
		V29.32L7.893,29.32z M7.368,30.536V30.26c0.027,0.11,0.138,0.166,0.275,0.166c0.139,0,0.305-0.111,0.166-0.111
		c-0.138,0-0.304-0.165-0.055-0.165c0.055,0,0.082,0,0.138,0v0.358c-0.027,0.028-0.056,0.111-0.056,0.166
		c0,0.056,0.028,0.111,0.056,0.166v0.332c-0.027-0.028-0.056-0.056-0.083-0.084c-0.082-0.138-0.138-0.275-0.138-0.414
		c0-0.027,0-0.055,0-0.055H7.644C7.534,30.619,7.45,30.592,7.368,30.536L7.368,30.536z M7.893,31.42
		c-0.193,0-0.358,0.11-0.358,0.304c0,0.028,0,0.139,0.082,0.193c-0.082,0.139-0.166,0.249-0.248,0.387v0.581
		c0.055,0,0.11,0.055,0.11,0.11c0,0.083-0.056,0.11-0.11,0.11v1.215c0.027,0,0.027,0,0.055,0s0.083,0.028,0.083,0.084
		c0,0.027-0.056,0.082-0.083,0.082s-0.027-0.027-0.055-0.027v1.105l0.524,0.138v-0.138l-0.193-0.028l0.083-3.48h0.11v-0.222
		c-0.11,0-0.193-0.027-0.193-0.11s0.11-0.138,0.193-0.138V31.42L7.893,31.42z M7.368,39.791c0.166-0.027,0.359-0.083,0.524-0.11
		v-0.166c-0.138,0-0.249,0-0.276,0v-3.426l0.276,0.083v-0.166l-0.524-0.11V39.791L7.368,39.791z M7.893,39.818
		c-0.056,0.028-0.11,0.028-0.165,0.028c-0.111,0.027-0.249,0.056-0.359,0.083v0.166c0.166-0.056,0.359-0.084,0.524-0.111V39.818
		L7.893,39.818z M7.893,40.178c-0.11,0.027-0.193,0.027-0.249,0.056c-0.082,0-0.165,0.027-0.275,0.056v0.193
		c0.166-0.056,0.359-0.111,0.524-0.139V40.178L7.893,40.178z M7.893,40.564c-0.193,0.056-0.358,0.111-0.524,0.139v0.221
		c0.138-0.055,0.275-0.083,0.441-0.139h0.083V40.564L7.893,40.564z M7.893,41.09c-0.165,0-0.331,0.055-0.524,0.138v0.193
		c0.055,0,0.082,0,0.11,0c0.056,0.028,0.027,0.139,0.027,0.193c-0.027,0.056-0.083,0.11-0.138,0.139v0.138
		c0.082-0.027,0.166-0.055,0.193-0.055h0.331V41.67c-0.083,0-0.165,0-0.193,0.027c-0.056,0-0.11-0.11-0.11-0.221
		c0.027-0.11,0.027-0.166,0.083-0.193c0.027,0,0.11-0.027,0.221-0.027V41.09L7.893,41.09z M7.368,42.389
		c0.055,0.027,0.082,0.027,0.138,0.027h0.387v-0.193H7.506c-0.056,0-0.083,0-0.138,0V42.389z M7.368,29.375
		c-0.027,0.028-0.056,0.084-0.056,0.139v0.276c0,0.056,0.028,0.083,0.056,0.138c-0.111,0.056-0.166,0.166-0.166,0.276
		c0,0.139,0.055,0.249,0.166,0.332V30.26c0-0.027,0-0.027,0-0.056v-0.027V29.375L7.368,29.375z M7.368,32.304
		c-0.221,0.387-0.442,0.802-0.607,1.271v1.271c0.027-0.027,0.055-0.027,0.055-0.027c0.11,0,0.166,0.083,0.166,0.166
		c0,0.082-0.056,0.165-0.166,0.165c0,0-0.027,0-0.055,0v1.52c0.082,0,0.109,0.056,0.109,0.11c0,0.056-0.027,0.111-0.109,0.111v1.63
		c0.165,0.387,0.33,0.773,0.524,1.132c-0.138,0.028-0.276,0.084-0.415,0.111l-0.109,0.055v0.166c0.137-0.027,0.358-0.11,0.607-0.193
		v-3.896c-0.083,0-0.166-0.027-0.166-0.027c-0.139-0.028-0.221-0.11-0.221-0.193c0-0.11,0.027-0.166,0.138-0.166l0.249,0.056v-1.105
		c-0.027,0-0.027-0.027-0.027-0.055c0-0.028,0-0.056,0.027-0.084v-1.215c-0.056,0-0.111-0.027-0.111-0.11
		c0-0.056,0.056-0.11,0.111-0.11V32.304L7.368,32.304z M7.368,39.93v0.166H7.313c-0.193,0.055-0.387,0.138-0.552,0.221v-0.221
		C6.954,40.04,7.147,39.984,7.368,39.93L7.368,39.93z M7.368,40.289c-0.193,0.055-0.414,0.138-0.607,0.221v0.221
		c0.165-0.083,0.387-0.166,0.607-0.248V40.289L7.368,40.289z M7.368,40.703v0.221c-0.249,0.083-0.471,0.193-0.607,0.276v-0.222
		c0.109-0.055,0.221-0.109,0.358-0.165C7.202,40.785,7.285,40.758,7.368,40.703L7.368,40.703z M7.368,41.228
		c-0.166,0.056-0.359,0.166-0.607,0.332v0.193c0.055,0,0.109-0.028,0.137-0.056c0.057-0.055,0.111-0.083,0.166-0.11
		c0.084-0.056,0.222-0.138,0.305-0.166V41.228L7.368,41.228z M7.368,41.753c-0.027,0-0.056,0.027-0.083,0.027
		c-0.028,0.027-0.138,0.056-0.166,0.138c-0.056,0.083-0.056,0.193-0.028,0.249c0.028,0.11,0.139,0.193,0.277,0.222v-0.166
		c-0.056-0.028-0.111-0.083-0.111-0.166s0.056-0.139,0.111-0.166V41.753z M6.761,33.574c-0.277,0.746-0.415,1.604-0.415,2.459
		c0,0.885,0.138,1.713,0.415,2.487v-1.63l0,0c-0.057,0-0.111-0.056-0.111-0.111c0-0.055,0.055-0.11,0.111-0.11l0,0v-1.52
		c-0.057-0.027-0.111-0.083-0.111-0.165c0-0.056,0.055-0.139,0.111-0.139V33.574L6.761,33.574z M6.761,39.818H6.704
		c0,0-0.082,0.111-0.027,0.166c0.027,0.027,0.027,0.027,0.027,0.027s0.028,0,0.057-0.027l0,0V39.818L6.761,39.818z M6.761,40.096
		c-0.139,0.055-0.25,0.138-0.305,0.193c0,0,0,0,0,0.027s0.027,0.082,0.055,0.11c0.084-0.028,0.166-0.083,0.25-0.11V40.096
		L6.761,40.096z M6.761,40.51c-0.028,0-0.057,0.027-0.084,0.027c-0.027,0.027-0.027,0.083-0.027,0.11
		c0,0.028,0.027,0.083,0.055,0.11l0.057-0.027V40.51L6.761,40.51z M6.761,40.979l-0.028,0.028c0,0-0.11,0.056-0.11,0.11
		c0,0.056,0.027,0.139,0.082,0.139c0.028-0.028,0.057-0.028,0.057-0.056V40.979L6.761,40.979z M6.761,41.56l-0.057,0.055
		c-0.027,0.056,0,0.11,0.028,0.11c0,0.028,0.028,0.028,0.028,0.028V41.56z"/>
</g>
<rect fill="none" width="72" height="72"/>
</svg>
