<?xml version="1.0" encoding="utf-8"?>
<!-- Generator: Adobe Illustrator 15.1.0, SVG Export Plug-In . SVG Version: 6.00 Build 0)  -->
<!DOCTYPE svg PUBLIC "-//W3C//DTD SVG 1.1//EN" "http://www.w3.org/Graphics/SVG/1.1/DTD/svg11.dtd">
<svg version="1.1" id="Layer_1" xmlns="http://www.w3.org/2000/svg" xmlns:xlink="http://www.w3.org/1999/xlink" x="0px" y="0px"
	 width="144px" height="72px" viewBox="0 0 144 72" enable-background="new 0 0 144 72" xml:space="preserve">
<g>
	<polygon fill="#9A9999" points="8.583,15.519 8.583,42.031 16.573,42.031 16.573,31.301 27.579,31.301 27.579,25.975 
		16.573,25.975 16.573,20.845 27.579,20.845 27.579,15.519 8.583,15.519 	"/>
	<path fill="#9A9999" d="M56.513,33.338c-1.567,0.979-4.7,2.859-8.969,2.859c-4.896,0-8.342-3.291-8.342-7.324
		c0-4.66,4.23-7.519,8.773-7.519c3.956,0,6.933,1.958,8.421,2.859v-7.05c-2.115-0.744-5.757-1.997-10.222-1.997
		c-7.99,0-15.119,4.229-15.119,13.589c0,8.107,5.64,13.629,15,13.629c3.486,0,6.972-0.549,10.458-2.35V33.338L56.513,33.338z"/>
	<polygon fill="#9A9999" points="59.674,15.519 59.674,21.98 69.387,21.98 69.387,42.031 77.377,42.031 77.377,21.98 87.09,21.98 
		87.09,15.519 59.674,15.519 	"/>
	<polygon fill="#9A9999" points="8.698,50.875 10.829,50.875 10.829,50.468 10.154,50.468 10.154,48.629 11.342,48.629 
		11.342,49.329 11.749,49.329 11.749,47.629 11.342,47.629 11.342,48.223 10.154,48.223 10.154,46.408 11.684,46.408 11.684,47.059 
		12.09,47.059 12.09,46.002 8.698,46.002 8.698,46.408 9.364,46.408 9.364,50.468 8.698,50.468 8.698,50.875 	"/>
	<path fill="#9A9999" d="M12.38,47.808h0.61v2.124c0,0.699,0.375,1.04,0.977,1.04c0.398,0,0.797-0.146,1.22-0.504v0.407h1.359
		v-0.334h-0.61v-3.067h-1.351v0.334h0.602v2.359c-0.309,0.228-0.602,0.351-0.83,0.351c-0.383,0-0.618-0.262-0.618-0.7v-2.344H12.38
		V47.808L12.38,47.808z"/>
	<path fill="#9A9999" d="M16.792,50.875h1.928v-0.334h-0.562v-2.352c0.285-0.227,0.594-0.357,0.847-0.357
		c0.35,0,0.602,0.244,0.602,0.708v2.001H19.07v0.334h1.887v-0.334h-0.602v-2.172c0-0.65-0.399-0.992-0.936-0.992
		c-0.456,0-0.863,0.188-1.262,0.48v-0.384h-1.366v0.334h0.618v2.733h-0.618V50.875L16.792,50.875z"/>
	<path fill-rule="evenodd" clip-rule="evenodd" fill="#9A9999" d="M23.212,45.855h0.603v1.952c-0.333-0.284-0.691-0.431-1.034-0.431
		c-0.821,0-1.513,0.788-1.513,1.74c0,1.074,0.765,1.758,1.944,1.758h1.953v-0.334h-0.603v-5.02h-1.351V45.855L23.212,45.855z
		 M23.815,50.541h-0.326c-0.805,0-1.383-0.383-1.383-1.424c0-0.829,0.341-1.31,0.911-1.31c0.26,0,0.545,0.13,0.797,0.382V50.541
		L23.815,50.541z"/>
	<path fill-rule="evenodd" clip-rule="evenodd" fill="#9A9999" d="M25.656,48.174c0.407-0.252,0.7-0.366,0.96-0.366
		c0.447,0,0.57,0.276,0.57,0.675v0.456l-0.749,0.187c-0.667,0.163-0.943,0.447-0.943,0.953c0,0.495,0.342,0.894,0.789,0.894
		c0.293,0,0.586-0.202,0.993-0.504c0.179,0.357,0.358,0.504,0.619,0.504c0.236,0,0.488-0.097,0.74-0.276v-0.228
		c-0.073,0.017-0.285,0.05-0.35,0.05c-0.203,0-0.35-0.213-0.35-0.554v-1.392c0-0.74-0.407-1.195-1.066-1.195
		c-0.407,0-0.886,0.203-1.293,0.561L25.656,48.174L25.656,48.174z M27.187,49.271v0.912c-0.212,0.171-0.391,0.252-0.554,0.252
		c-0.252,0-0.439-0.195-0.439-0.456C26.194,49.646,26.479,49.442,27.187,49.271L27.187,49.271z"/>
	<path fill="#9A9999" d="M29.91,51.64c0.334,0.032,0.48,0.122,0.48,0.3c0,0.262-0.26,0.359-0.797,0.359v0.309
		c1.073,0.098,1.423-0.431,1.423-0.806c0-0.325-0.228-0.585-0.545-0.602l0.098-0.229c0.854,0,1.383-0.487,1.383-0.626
		c0-0.057-0.048-0.203-0.114-0.203c-0.081,0-0.406,0.375-0.959,0.375c-0.708,0-1.09-0.538-1.09-1.538
		c0-0.87,0.366-1.269,0.911-1.269c0.366,0,0.724,0.243,0.813,0.739h0.236v-1.065h-0.236l-0.065,0.204
		c-0.374-0.163-0.585-0.212-0.87-0.212c-0.952,0-1.627,0.716-1.627,1.717c0,0.918,0.537,1.643,1.277,1.822L29.91,51.64L29.91,51.64z
		"/>
	<path fill-rule="evenodd" clip-rule="evenodd" fill="#9A9999" d="M32.815,46.636c0.041-0.179,0.171-0.3,0.317-0.3
		c0.252,0,0.643,0.292,1.017,0.292c0.391,0,0.635-0.3,0.74-0.911h-0.285c-0.057,0.211-0.179,0.302-0.342,0.302
		c-0.244,0-0.586-0.302-0.976-0.302c-0.391,0-0.732,0.424-0.732,0.919H32.815L32.815,46.636z M32.473,48.174
		c0.407-0.252,0.7-0.366,0.96-0.366c0.447,0,0.569,0.276,0.569,0.675v0.456l-0.749,0.187c-0.667,0.163-0.943,0.447-0.943,0.953
		c0,0.495,0.341,0.894,0.789,0.894c0.293,0,0.586-0.202,0.993-0.504c0.179,0.357,0.358,0.504,0.619,0.504
		c0.235,0,0.488-0.097,0.74-0.276v-0.228c-0.073,0.017-0.285,0.05-0.35,0.05c-0.203,0-0.35-0.213-0.35-0.554v-1.392
		c0-0.74-0.407-1.195-1.066-1.195c-0.407,0-0.887,0.203-1.293,0.561L32.473,48.174L32.473,48.174z M34.003,49.271v0.912
		c-0.211,0.171-0.391,0.252-0.554,0.252c-0.252,0-0.438-0.195-0.438-0.456C33.011,49.646,33.295,49.442,34.003,49.271L34.003,49.271
		z"/>
	<path fill-rule="evenodd" clip-rule="evenodd" fill="#9A9999" d="M35.759,49.174c0,1.01,0.821,1.798,1.871,1.798
		c1.05,0,1.872-0.788,1.872-1.798c0-1.009-0.821-1.797-1.872-1.797C36.58,47.377,35.759,48.165,35.759,49.174L35.759,49.174z
		 M36.597,49.174c0-0.918,0.391-1.463,1.033-1.463c0.651,0,1.034,0.545,1.034,1.463c0,0.92-0.383,1.465-1.034,1.465
		C36.987,50.639,36.597,50.094,36.597,49.174L36.597,49.174z"/>
	<path fill-rule="evenodd" clip-rule="evenodd" fill="#9A9999" d="M41.977,52.859h1.945v-0.334h-0.594v-1.838
		c0.244,0.188,0.553,0.284,0.887,0.284c1.261,0,1.652-1.032,1.652-1.854c0-1.252-0.846-1.74-1.53-1.74
		c-0.195,0-0.365,0.032-0.528,0.097c-0.163,0.065-0.317,0.18-0.48,0.334v-0.334h-1.351v0.334h0.602v4.718h-0.602V52.859
		L41.977,52.859z M43.328,48.189c0.285-0.332,0.472-0.447,0.756-0.447c0.578,0,0.944,0.603,0.944,1.57
		c0,0.749-0.318,1.326-0.887,1.326c-0.317,0-0.618-0.188-0.813-0.488V48.189L43.328,48.189z"/>
	<path fill-rule="evenodd" clip-rule="evenodd" fill="#9A9999" d="M46.518,48.174c0.407-0.252,0.7-0.366,0.96-0.366
		c0.447,0,0.569,0.276,0.569,0.675v0.456l-0.748,0.187c-0.667,0.163-0.944,0.447-0.944,0.953c0,0.495,0.342,0.894,0.79,0.894
		c0.293,0,0.586-0.202,0.993-0.504c0.179,0.357,0.358,0.504,0.618,0.504c0.236,0,0.488-0.097,0.74-0.276v-0.228
		c-0.073,0.017-0.285,0.05-0.35,0.05c-0.204,0-0.35-0.213-0.35-0.554v-1.392c0-0.74-0.407-1.195-1.066-1.195
		c-0.407,0-0.887,0.203-1.294,0.561L46.518,48.174L46.518,48.174z M48.047,49.271v0.912c-0.211,0.171-0.39,0.252-0.553,0.252
		c-0.252,0-0.439-0.195-0.439-0.456C47.054,49.646,47.339,49.442,48.047,49.271L48.047,49.271z"/>
	<path fill="#9A9999" d="M49.697,50.875h1.969v-0.334h-0.61v-2.074c0.187-0.261,0.358-0.407,0.578-0.407
		c0.228,0,0.342,0.122,0.537,0.48c0.139-0.22,0.244-0.497,0.31-0.838c-0.196-0.229-0.375-0.325-0.578-0.325
		c-0.22,0-0.423,0.162-0.83,0.666h-0.017v-0.569h-1.359v0.334h0.61v2.733h-0.61V50.875L49.697,50.875z"/>
	<path fill-rule="evenodd" clip-rule="evenodd" fill="#9A9999" d="M52.995,48.174c0.407-0.252,0.7-0.366,0.96-0.366
		c0.447,0,0.569,0.276,0.569,0.675v0.456l-0.748,0.187c-0.667,0.163-0.944,0.447-0.944,0.953c0,0.495,0.342,0.894,0.79,0.894
		c0.293,0,0.586-0.202,0.993-0.504c0.179,0.357,0.358,0.504,0.618,0.504c0.236,0,0.488-0.097,0.74-0.276v-0.228
		c-0.073,0.017-0.285,0.05-0.35,0.05c-0.203,0-0.35-0.213-0.35-0.554v-1.392c0-0.74-0.407-1.195-1.066-1.195
		c-0.407,0-0.887,0.203-1.294,0.561L52.995,48.174L52.995,48.174z M54.524,49.271v0.912c-0.211,0.171-0.39,0.252-0.553,0.252
		c-0.252,0-0.439-0.195-0.439-0.456C53.532,49.646,53.816,49.442,54.524,49.271L54.524,49.271z"/>
	<path fill-rule="evenodd" clip-rule="evenodd" fill="#9A9999" d="M58.542,48.174c0.407-0.252,0.7-0.366,0.96-0.366
		c0.447,0,0.569,0.276,0.569,0.675v0.456l-0.749,0.187c-0.667,0.163-0.943,0.447-0.943,0.953c0,0.495,0.341,0.894,0.789,0.894
		c0.293,0,0.586-0.202,0.993-0.504c0.179,0.357,0.358,0.504,0.619,0.504c0.235,0,0.488-0.097,0.74-0.276v-0.228
		c-0.073,0.017-0.285,0.05-0.35,0.05c-0.203,0-0.35-0.213-0.35-0.554v-1.392c0-0.74-0.407-1.195-1.066-1.195
		c-0.407,0-0.887,0.203-1.293,0.561L58.542,48.174L58.542,48.174z M60.071,49.271v0.912c-0.211,0.171-0.391,0.252-0.554,0.252
		c-0.252,0-0.438-0.195-0.438-0.456C59.079,49.646,59.364,49.442,60.071,49.271L60.071,49.271z"/>
	<path fill="#9A9999" d="M68.165,49.973c-0.562,0.414-1.049,0.593-1.522,0.593c-1.058,0-1.765-0.878-1.765-2.188
		c0-1.244,0.626-2.065,1.562-2.065c0.626,0,1.066,0.349,1.204,0.951h0.358v-1.424H67.7l-0.057,0.276
		c-0.375-0.138-0.765-0.211-1.171-0.211c-1.472,0-2.546,1.099-2.546,2.587c0,1.374,1.017,2.48,2.473,2.48
		c0.691,0,1.293-0.194,1.766-0.585V49.973L68.165,49.973z"/>
	<path fill-rule="evenodd" clip-rule="evenodd" fill="#9A9999" d="M68.555,50.875h1.919v-0.334h-0.578v-3.067h-1.342v0.334h0.594
		v2.733h-0.594V50.875L68.555,50.875z M69.449,45.807c-0.252,0-0.463,0.212-0.463,0.464s0.211,0.464,0.463,0.464
		c0.252,0,0.464-0.212,0.464-0.464S69.701,45.807,69.449,45.807L69.449,45.807z"/>
	<path fill-rule="evenodd" clip-rule="evenodd" fill="#9A9999" d="M71.589,46.84l0.87-0.627l0.863,0.627h0.301l-0.937-1.318h-0.463
		l-0.936,1.318H71.589L71.589,46.84z M73.988,48.906c-0.13-0.984-0.666-1.529-1.513-1.529c-0.935,0-1.546,0.666-1.546,1.7
		c0,0.951,0.626,1.895,1.781,1.895c0.465,0,0.725-0.089,1.277-0.431l0.058-0.366c-0.406,0.261-0.781,0.391-1.132,0.391
		c-0.723,0-1.171-0.684-1.171-1.659H73.988L73.988,48.906z M71.743,48.572c0.048-0.577,0.235-0.861,0.684-0.861
		c0.431,0,0.699,0.309,0.765,0.861H71.743L71.743,48.572z"/>
	<path fill="#9A9999" d="M74.338,50.875h1.928v-0.334h-0.562v-2.352c0.286-0.227,0.595-0.357,0.847-0.357
		c0.35,0,0.602,0.244,0.602,0.708v2.001h-0.536v0.334h1.888v-0.334h-0.603v-2.172c0-0.65-0.398-0.992-0.935-0.992
		c-0.456,0-0.863,0.188-1.263,0.48v-0.384h-1.366v0.334h0.619v2.733h-0.619V50.875L74.338,50.875z"/>
	<path fill="#9A9999" d="M81.638,47.385h-0.235l-0.066,0.204c-0.373-0.163-0.586-0.212-0.869-0.212
		c-0.953,0-1.628,0.716-1.628,1.717c0,1.064,0.725,1.878,1.676,1.878c0.766,0,1.327-0.487,1.327-0.626
		c0-0.057-0.05-0.203-0.115-0.203c-0.081,0-0.406,0.375-0.96,0.375c-0.708,0-1.09-0.538-1.09-1.538c0-0.87,0.366-1.269,0.911-1.269
		c0.366,0,0.725,0.243,0.814,0.739h0.235V47.385L81.638,47.385z"/>
	<path fill-rule="evenodd" clip-rule="evenodd" fill="#9A9999" d="M82.2,50.875h1.919v-0.334h-0.577v-3.067H82.2v0.334h0.594v2.733
		H82.2V50.875L82.2,50.875z M83.094,45.807c-0.252,0-0.463,0.212-0.463,0.464s0.211,0.464,0.463,0.464
		c0.254,0,0.465-0.212,0.465-0.464S83.348,45.807,83.094,45.807L83.094,45.807z"/>
	<path fill-rule="evenodd" clip-rule="evenodd" fill="#9A9999" d="M84.722,48.174c0.407-0.252,0.7-0.366,0.96-0.366
		c0.447,0,0.569,0.276,0.569,0.675v0.456l-0.749,0.187c-0.666,0.163-0.943,0.447-0.943,0.953c0,0.495,0.342,0.894,0.789,0.894
		c0.293,0,0.586-0.202,0.992-0.504c0.18,0.357,0.359,0.504,0.619,0.504c0.236,0,0.487-0.097,0.74-0.276v-0.228
		c-0.073,0.017-0.285,0.05-0.35,0.05c-0.203,0-0.35-0.213-0.35-0.554v-1.392c0-0.74-0.406-1.195-1.066-1.195
		c-0.406,0-0.887,0.203-1.293,0.561L84.722,48.174L84.722,48.174z M86.251,49.271v0.912c-0.212,0.171-0.39,0.252-0.553,0.252
		c-0.253,0-0.439-0.195-0.439-0.456C85.259,49.646,85.543,49.442,86.251,49.271L86.251,49.271z"/>
	<path fill-rule="evenodd" clip-rule="evenodd" fill="#9A9999" d="M93.181,48.906c-0.13-0.984-0.667-1.529-1.513-1.529
		c-0.936,0-1.546,0.666-1.546,1.7c0,0.951,0.627,1.895,1.781,1.895c0.464,0,0.724-0.089,1.277-0.431l0.058-0.366
		c-0.407,0.261-0.782,0.391-1.131,0.391c-0.725,0-1.172-0.684-1.172-1.659H93.181L93.181,48.906z M90.936,48.572
		c0.049-0.577,0.236-0.861,0.683-0.861c0.432,0,0.701,0.309,0.766,0.861H90.936L90.936,48.572z"/>
	<path fill-rule="evenodd" clip-rule="evenodd" fill="#9A9999" d="M95.906,48.174c0.406-0.252,0.699-0.366,0.96-0.366
		c0.446,0,0.569,0.276,0.569,0.675v0.456l-0.749,0.187c-0.667,0.163-0.944,0.447-0.944,0.953c0,0.495,0.342,0.894,0.79,0.894
		c0.293,0,0.586-0.202,0.992-0.504c0.179,0.357,0.358,0.504,0.618,0.504c0.236,0,0.488-0.097,0.74-0.276v-0.228
		c-0.072,0.017-0.285,0.05-0.35,0.05c-0.203,0-0.35-0.213-0.35-0.554v-1.392c0-0.74-0.407-1.195-1.065-1.195
		c-0.407,0-0.888,0.203-1.294,0.561L95.906,48.174L95.906,48.174z M97.436,49.271v0.912c-0.212,0.171-0.392,0.252-0.553,0.252
		c-0.254,0-0.439-0.195-0.439-0.456C96.443,49.646,96.727,49.442,97.436,49.271L97.436,49.271z"/>
	<polygon fill="#9A9999" points="101.337,50.875 103.477,50.875 103.477,50.468 102.802,50.468 102.802,46.563 104.055,46.563 
		104.055,47.23 104.461,47.23 104.461,45.75 104.055,45.75 104.055,46.002 100.759,46.002 100.759,45.75 100.353,45.75 
		100.353,47.23 100.759,47.23 100.759,46.563 102.013,46.563 102.013,50.468 101.337,50.468 101.337,50.875 	"/>
	<path fill-rule="evenodd" clip-rule="evenodd" fill="#9A9999" d="M107.135,48.906c-0.13-0.984-0.666-1.529-1.513-1.529
		c-0.935,0-1.546,0.666-1.546,1.7c0,0.951,0.627,1.895,1.783,1.895c0.463,0,0.723-0.089,1.275-0.431l0.058-0.366
		c-0.406,0.261-0.78,0.391-1.131,0.391c-0.724,0-1.171-0.684-1.171-1.659H107.135L107.135,48.906z M104.891,48.572
		c0.049-0.577,0.236-0.861,0.683-0.861c0.431,0,0.7,0.309,0.765,0.861H104.891L104.891,48.572z"/>
	<path fill="#9A9999" d="M110.406,47.385h-0.236l-0.065,0.204c-0.374-0.163-0.586-0.212-0.87-0.212
		c-0.952,0-1.627,0.716-1.627,1.717c0,1.064,0.725,1.878,1.676,1.878c0.764,0,1.326-0.487,1.326-0.626
		c0-0.057-0.049-0.203-0.114-0.203c-0.081,0-0.407,0.375-0.96,0.375c-0.708,0-1.09-0.538-1.09-1.538c0-0.87,0.365-1.269,0.91-1.269
		c0.367,0,0.725,0.243,0.814,0.739h0.236V47.385L110.406,47.385z"/>
	<path fill="#9A9999" d="M110.854,50.875h1.929v-0.334h-0.562v-2.352c0.285-0.227,0.595-0.357,0.847-0.357
		c0.349,0,0.603,0.244,0.603,0.708v2.001h-0.537v0.334h1.887v-0.334h-0.603v-2.172c0-0.65-0.398-0.992-0.935-0.992
		c-0.456,0-0.863,0.188-1.262,0.48v-0.384h-1.367v0.334h0.619v2.733h-0.619V50.875L110.854,50.875z"/>
	<path fill-rule="evenodd" clip-rule="evenodd" fill="#9A9999" d="M115.347,49.174c0,1.01,0.822,1.798,1.871,1.798
		c1.05,0,1.872-0.788,1.872-1.798c0-1.009-0.822-1.797-1.872-1.797C116.169,47.377,115.347,48.165,115.347,49.174L115.347,49.174z
		 M116.186,49.174c0-0.918,0.391-1.463,1.032-1.463c0.65,0,1.034,0.545,1.034,1.463c0,0.92-0.384,1.465-1.034,1.465
		C116.576,50.639,116.186,50.094,116.186,49.174L116.186,49.174z"/>
	<polygon fill="#9A9999" points="119.5,50.875 121.428,50.875 121.428,50.541 120.85,50.541 120.85,45.521 119.5,45.521 
		119.5,45.855 120.102,45.855 120.102,50.541 119.5,50.541 119.5,50.875 	"/>
	<path fill-rule="evenodd" clip-rule="evenodd" fill="#9A9999" d="M121.824,49.174c0,1.01,0.822,1.798,1.871,1.798
		c1.05,0,1.871-0.788,1.871-1.798c0-1.009-0.821-1.797-1.871-1.797C122.646,47.377,121.824,48.165,121.824,49.174L121.824,49.174z
		 M122.662,49.174c0-0.918,0.391-1.463,1.033-1.463c0.651,0,1.033,0.545,1.033,1.463c0,0.92-0.382,1.465-1.033,1.465
		C123.053,50.639,122.662,50.094,122.662,49.174L122.662,49.174z"/>
	<path fill-rule="evenodd" clip-rule="evenodd" fill="#9A9999" d="M129.369,47.474h-1.057c-0.107,0-0.204-0.024-0.318-0.048
		c-0.121-0.024-0.26-0.049-0.464-0.049c-0.846,0-1.431,0.528-1.431,1.302c0,0.65,0.382,1.09,1.121,1.285v0.016l-0.121,0.024
		c-0.398,0.105-0.577,0.293-0.577,0.528c0,0.204,0.146,0.399,0.415,0.569c-0.685,0.237-1.001,0.521-1.001,0.854
		c0,0.423,0.609,0.944,1.676,0.944c1.032,0,1.708-0.439,1.708-1.123c0-0.211-0.049-0.366-0.228-0.545
		c-0.521-0.521-1.863-0.513-1.863-0.919c0-0.05,0.017-0.065,0.058-0.105c0.243-0.244,0.846-0.058,1.456-0.667
		c0.235-0.236,0.357-0.578,0.357-0.896c0-0.31-0.113-0.586-0.342-0.838h0.61V47.474L129.369,47.474z M126.872,48.67
		c0-0.618,0.276-0.992,0.74-0.992c0.456,0,0.716,0.382,0.716,1.033c0,0.618-0.276,0.992-0.716,0.992
		C127.148,49.703,126.872,49.313,126.872,48.67L126.872,48.67z M127.221,51.225c1.1,0.309,1.465,0.472,1.465,0.772
		c0,0.139-0.105,0.276-0.268,0.334c-0.18,0.064-0.488,0.114-0.773,0.114c-0.585,0-0.977-0.229-0.977-0.562
		C126.668,51.648,126.814,51.477,127.221,51.225L127.221,51.225z"/>
	<path fill-rule="evenodd" clip-rule="evenodd" fill="#9A9999" d="M129.652,50.875h1.92v-0.334h-0.578v-3.067h-1.342v0.334h0.595
		v2.733h-0.595V50.875L129.652,50.875z M130.547,45.807c-0.251,0-0.463,0.212-0.463,0.464s0.212,0.464,0.463,0.464
		c0.253,0,0.464-0.212,0.464-0.464S130.8,45.807,130.547,45.807L130.547,45.807z"/>
	<path fill-rule="evenodd" clip-rule="evenodd" fill="#9A9999" d="M132.175,48.174c0.406-0.252,0.699-0.366,0.96-0.366
		c0.447,0,0.569,0.276,0.569,0.675v0.456l-0.749,0.187c-0.667,0.163-0.943,0.447-0.943,0.953c0,0.495,0.341,0.894,0.789,0.894
		c0.293,0,0.586-0.202,0.992-0.504c0.18,0.357,0.358,0.504,0.619,0.504c0.236,0,0.487-0.097,0.74-0.276v-0.228
		c-0.074,0.017-0.285,0.05-0.351,0.05c-0.202,0-0.349-0.213-0.349-0.554v-1.392c0-0.74-0.407-1.195-1.066-1.195
		c-0.407,0-0.887,0.203-1.293,0.561L132.175,48.174L132.175,48.174z M133.704,49.271v0.912c-0.212,0.171-0.391,0.252-0.554,0.252
		c-0.252,0-0.439-0.195-0.439-0.456C132.711,49.646,132.996,49.442,133.704,49.271L133.704,49.271z"/>
	<g>
		<path fill="#9A9999" d="M8.811,56.654h0.344v-2.088H8.811v-0.21h0.804v0.21l0.804,1.678l0.791-1.678v-0.21h0.82v0.21H11.69v2.088
			h0.339v0.21h-1.092v-0.21h0.348v-1.721h-0.008l-0.904,1.931H10.28l-0.887-1.893H9.384v1.683h0.339v0.21H8.811V56.654z"/>
		<path fill="#9A9999" d="M12.31,56.654h0.347v-2.088H12.31v-0.21h1.101v0.21h-0.348v2.088h0.348v0.21H12.31V56.654z"/>
		<path fill="#9A9999" d="M13.696,56.654h0.343v-2.088h-0.343v-0.21h0.724v0.21l1.494,1.707v-1.707H15.55v-0.21h0.929v0.21h-0.343
			v2.298h-0.222l-1.641-1.876v1.666h0.339v0.21h-0.917V56.654z"/>
		<path fill="#9A9999" d="M16.76,56.654h0.347v-2.088H16.76v-0.21h1.101v0.21h-0.348v2.088h0.348v0.21H16.76V56.654z"/>
		<path fill="#9A9999" d="M18.275,56.11h0.209v0.317c0.168,0.202,0.331,0.29,0.506,0.29c0.234,0,0.419-0.176,0.419-0.402
			c0-0.423-0.582-0.507-0.921-0.846c-0.164-0.163-0.226-0.334-0.226-0.507c0-0.33,0.276-0.648,0.712-0.648
			c0.18,0,0.343,0.033,0.485,0.126v-0.135h0.21v0.683h-0.21v-0.272c-0.104-0.134-0.264-0.213-0.435-0.213
			c-0.28,0-0.401,0.167-0.401,0.359c0,0.394,0.573,0.452,0.933,0.813c0.159,0.159,0.213,0.302,0.213,0.506
			c0,0.428-0.301,0.726-0.753,0.726c-0.192,0-0.343-0.059-0.532-0.177v0.185h-0.209V56.11z"/>
		<path fill="#9A9999" d="M20.599,56.654h0.348v-2.009h-0.646v0.343h-0.209v-0.762h0.209v0.13h1.696v-0.13h0.209v0.762h-0.209
			v-0.343h-0.645v2.009h0.347v0.21h-1.101V56.654z"/>
		<path fill="#9A9999" d="M22.453,56.654h0.339v-2.088h-0.339v-0.21h1.754V54.9h-0.209v-0.334h-0.8v0.903h0.615v-0.306h0.209v0.875
			h-0.209V55.68h-0.615v0.975h0.829v-0.352h0.209v0.562h-1.783V56.654z M23.064,54.098l0.313-0.721h0.511l-0.703,0.721H23.064z"/>
		<path fill="#9A9999" d="M24.479,56.654h0.344v-2.088h-0.344v-0.21h0.98c0.628,0,0.845,0.335,0.845,0.662
			c0,0.325-0.226,0.56-0.59,0.618v0.009c0.373,0.088,0.515,0.289,0.871,1.009h0.255v0.21h-0.599l-0.281-0.557
			c-0.201-0.398-0.381-0.558-0.627-0.558h-0.105v0.904h0.339v0.21h-1.089V56.654z M25.312,55.541c0.343,0,0.548-0.184,0.548-0.494
			c0-0.305-0.185-0.48-0.507-0.48h-0.125v0.975H25.312z"/>
		<path fill="#9A9999" d="M27.007,56.654h0.348v-2.088h-0.348v-0.21h1.101v0.21h-0.347v2.088h0.347v0.21h-1.101V56.654z"/>
		<path fill="#9A9999" d="M29.762,54.306c0.904,0,1.352,0.716,1.352,1.307c0,0.674-0.511,1.302-1.352,1.302
			c-0.917,0-1.352-0.716-1.352-1.307C28.41,55.021,28.845,54.306,29.762,54.306z M29.762,56.705c0.561,0,0.862-0.419,0.862-1.093
			c0-0.694-0.314-1.097-0.862-1.097c-0.553,0-0.863,0.418-0.863,1.097C28.899,56.354,29.259,56.705,29.762,56.705z"/>
		<path fill="#9A9999" d="M32.44,56.654h0.348v-2.088H32.44v-0.21h1.114c0.829,0,1.385,0.519,1.385,1.294
			c0,0.689-0.448,1.214-1.243,1.214H32.44V56.654z M33.559,56.654c0.368,0,0.891-0.171,0.891-0.971c0-0.281-0.071-0.637-0.31-0.875
			c-0.159-0.159-0.423-0.242-0.774-0.242h-0.172v2.088H33.559z"/>
		<path fill="#9A9999" d="M34.994,56.654h0.218l0.833-2.361h0.214l0.883,2.361h0.218v0.21h-0.875v-0.21h0.239l-0.239-0.669h-0.837
			l-0.227,0.669h0.227v0.21h-0.653V56.654z M36.062,54.854h-0.008l-0.323,0.921h0.67L36.062,54.854z"/>
		<path fill="#9A9999" d="M38.657,56.654h0.339v-2.088h-0.339v-0.21h1.753V54.9h-0.209v-0.334h-0.799v0.903h0.615v-0.306h0.209
			v0.875h-0.209V55.68h-0.615v0.975h0.829v-0.352h0.209v0.562h-1.783V56.654z"/>
		<path fill="#9A9999" d="M40.624,56.654h0.348v-2.088h-0.348v-0.21h1.113c0.829,0,1.386,0.519,1.386,1.294
			c0,0.689-0.447,1.214-1.243,1.214h-1.256V56.654z M41.742,56.654c0.368,0,0.891-0.171,0.891-0.971c0-0.281-0.071-0.637-0.31-0.875
			c-0.159-0.159-0.422-0.242-0.774-0.242h-0.171v2.088H41.742z"/>
		<path fill="#9A9999" d="M43.408,54.356h1.096v0.21h-0.352v1.268c0,0.603,0.293,0.871,0.666,0.871c0.355,0,0.666-0.219,0.666-0.9
			v-1.238h-0.343v-0.21h1.034v0.21h-0.339v1.301c0,0.675-0.368,1.047-1.034,1.047c-0.624,0-1.055-0.289-1.055-1.126v-1.222h-0.338
			V54.356z"/>
		<path fill="#9A9999" d="M48.619,56.612c-0.242,0.201-0.552,0.302-0.908,0.302c-0.749,0-1.272-0.569-1.272-1.277
			c0-0.766,0.553-1.331,1.31-1.331c0.209,0,0.41,0.038,0.603,0.109l0.029-0.142h0.155v0.732h-0.184
			c-0.071-0.311-0.297-0.49-0.619-0.49c-0.482,0-0.804,0.423-0.804,1.063c0,0.674,0.364,1.127,0.908,1.127
			c0.243,0,0.494-0.093,0.783-0.307V56.612z"/>
		<path fill="#9A9999" d="M48.816,56.654h0.217l0.833-2.361h0.213l0.884,2.361h0.217v0.21h-0.875v-0.21h0.239l-0.239-0.669h-0.837
			l-0.226,0.669h0.226v0.21h-0.652V56.654z M49.884,54.854h-0.009l-0.322,0.921h0.67L49.884,54.854z"/>
		<path fill="#9A9999" d="M52.236,56.894c-0.619-0.109-1.034-0.624-1.034-1.257c0-0.766,0.553-1.331,1.31-1.331
			c0.209,0,0.41,0.038,0.603,0.109l0.029-0.142h0.155v0.732h-0.184c-0.071-0.311-0.297-0.49-0.619-0.49
			c-0.482,0-0.804,0.423-0.804,1.063c0,0.674,0.365,1.127,0.908,1.127c0.243,0,0.494-0.093,0.783-0.307v0.214
			c-0.242,0.201-0.527,0.302-0.967,0.302l-0.05,0.117c0.164,0.009,0.281,0.143,0.281,0.31c0,0.192-0.18,0.464-0.732,0.415v-0.159
			c0.276,0,0.41-0.051,0.41-0.185c0-0.092-0.076-0.138-0.247-0.154L52.236,56.894z"/>
		<path fill="#9A9999" d="M53.58,56.654h0.217l0.833-2.361h0.213l0.884,2.361h0.217v0.21H55.07v-0.21h0.239l-0.239-0.669h-0.837
			l-0.226,0.669h0.226v0.21H53.58V56.654z M54.162,53.976c0-0.256,0.176-0.474,0.377-0.474c0.201,0,0.376,0.156,0.502,0.156
			c0.084,0,0.146-0.047,0.176-0.156h0.146c-0.054,0.314-0.18,0.47-0.381,0.47c-0.192,0-0.393-0.151-0.523-0.151
			c-0.075,0-0.143,0.063-0.163,0.155H54.162z M54.647,54.854h-0.009l-0.322,0.921h0.67L54.647,54.854z"/>
		<path fill="#9A9999" d="M57.322,54.306c0.904,0,1.352,0.716,1.352,1.307c0,0.674-0.51,1.302-1.352,1.302
			c-0.917,0-1.353-0.716-1.353-1.307C55.97,55.021,56.405,54.306,57.322,54.306z M57.322,56.705c0.561,0,0.862-0.419,0.862-1.093
			c0-0.694-0.314-1.097-0.862-1.097c-0.553,0-0.862,0.418-0.862,1.097C56.46,56.354,56.82,56.705,57.322,56.705z"/>
		<path fill="#9A9999" d="M59.997,56.654h0.339v-2.088h-0.339v-0.21h1.754V54.9h-0.209v-0.334h-0.799v0.903h0.615v-0.306h0.209
			v0.875h-0.209V55.68h-0.615v0.975h0.829v-0.352h0.209v0.562h-1.783V56.654z"/>
		<path fill="#9A9999" d="M65.25,56.612c-0.243,0.201-0.552,0.302-0.909,0.302c-0.749,0-1.272-0.569-1.272-1.277
			c0-0.766,0.552-1.331,1.31-1.331c0.209,0,0.41,0.038,0.603,0.109l0.03-0.142h0.155v0.732h-0.185
			c-0.071-0.311-0.297-0.49-0.62-0.49c-0.481,0-0.803,0.423-0.803,1.063c0,0.674,0.364,1.127,0.908,1.127
			c0.243,0,0.494-0.093,0.783-0.307V56.612z"/>
		<path fill="#9A9999" d="M65.51,56.654h0.348v-2.088H65.51v-0.21h1.102v0.21h-0.348v2.088h0.348v0.21H65.51V56.654z"/>
		<path fill="#9A9999" d="M66.887,56.654h0.339v-2.088h-0.339v-0.21h1.754V54.9h-0.21v-0.334h-0.799v0.903h0.615v-0.306h0.209v0.875
			h-0.209V55.68h-0.615v0.975h0.829v-0.352h0.209v0.562h-1.783V56.654z M67.164,54.08l0.481-0.678h0.239l0.481,0.678H68.21
			l-0.444-0.322l-0.448,0.322H67.164z"/>
		<path fill="#9A9999" d="M68.859,56.654h0.343v-2.088h-0.343v-0.21h0.724v0.21l1.494,1.707v-1.707h-0.364v-0.21h0.929v0.21h-0.343
			v2.298h-0.222l-1.641-1.876v1.666h0.339v0.21h-0.917V56.654z"/>
		<path fill="#9A9999" d="M74.063,56.612c-0.242,0.201-0.553,0.302-0.908,0.302c-0.75,0-1.272-0.569-1.272-1.277
			c0-0.766,0.552-1.331,1.31-1.331c0.209,0,0.41,0.038,0.603,0.109l0.029-0.142h0.155v0.732h-0.185
			c-0.071-0.311-0.298-0.49-0.62-0.49c-0.48,0-0.803,0.423-0.803,1.063c0,0.674,0.363,1.127,0.908,1.127
			c0.243,0,0.494-0.093,0.783-0.307V56.612z"/>
		<path fill="#9A9999" d="M74.321,56.654h0.349v-2.088h-0.349v-0.21h1.101v0.21h-0.347v2.088h0.347v0.21h-1.101V56.654z"/>
		<path fill="#9A9999" d="M75.698,56.654h0.218l0.834-2.361h0.213l0.884,2.361h0.217v0.21h-0.874v-0.21h0.238l-0.238-0.669h-0.838
			l-0.226,0.669h0.226v0.21h-0.653V56.654z M76.766,54.854h-0.008l-0.322,0.921h0.67L76.766,54.854z"/>
	</g>
</g>
</svg>
